<svg width="9" height="16" viewBox="0 0 9 16" fill="none" xmlns="http://www.w3.org/2000/svg">
<path d="M0.244363 7.37568L7.06168 0.255608C7.21935 0.090796 7.42984 0 7.65427 0C7.87871 0 8.08919 0.090796 8.24687 0.255608L8.74891 0.779831C9.0756 1.12142 9.0756 1.6766 8.74891 2.01767L3.02425 7.99668L8.75527 13.9823C8.91294 14.1471 9 14.3668 9 14.6011C9 14.8357 8.91294 15.0554 8.75527 15.2203L8.25322 15.7444C8.09542 15.9092 7.88506 16 7.66062 16C7.43619 16 7.22571 15.9092 7.06803 15.7444L0.244363 8.61782C0.0863123 8.45248 -0.000495911 8.23174 1.90735e-06 7.99707C-0.000495911 7.7615 0.0863123 7.54088 0.244363 7.37568Z" fill="#051D65"/>
</svg>
