<svg width="185" height="44" viewBox="0 0 185 44" fill="none" xmlns="http://www.w3.org/2000/svg">
<rect width="185" height="44" rx="10" fill="#75D9FF"/>
<path d="M48.8914 18.8H52.9714C54.4114 18.8 55.6434 19.296 56.6674 20.288C57.6754 21.264 58.1794 22.464 58.1794 23.888C58.1794 25.328 57.6754 26.544 56.6674 27.536C55.6914 28.512 54.4594 29 52.9714 29H46.6594V12.2H56.7394V14.312H48.8914V18.8ZM48.8914 26.912H52.9714C53.8034 26.912 54.5074 26.624 55.0834 26.048C55.6754 25.472 55.9714 24.752 55.9714 23.888C55.9714 23.04 55.6754 22.328 55.0834 21.752C54.5074 21.176 53.8034 20.888 52.9714 20.888H48.8914V26.912ZM70.4184 19.064V17H72.5064V29H70.4184V26.936C69.3944 28.52 67.8824 29.312 65.8824 29.312C64.1864 29.312 62.7544 28.704 61.5864 27.488C60.4024 26.256 59.8104 24.76 59.8104 23C59.8104 21.256 60.4024 19.768 61.5864 18.536C62.7704 17.304 64.2024 16.688 65.8824 16.688C67.8824 16.688 69.3944 17.48 70.4184 19.064ZM66.1464 27.296C67.3624 27.296 68.3784 26.888 69.1944 26.072C70.0104 25.224 70.4184 24.2 70.4184 23C70.4184 21.784 70.0104 20.768 69.1944 19.952C68.3784 19.12 67.3624 18.704 66.1464 18.704C64.9464 18.704 63.9384 19.12 63.1224 19.952C62.3064 20.768 61.8984 21.784 61.8984 23C61.8984 24.2 62.3064 25.224 63.1224 26.072C63.9384 26.888 64.9464 27.296 66.1464 27.296ZM82.1499 22.856C83.4779 23.416 84.1419 24.368 84.1419 25.712C84.1419 26.752 83.7339 27.616 82.9179 28.304C82.1019 28.976 80.9739 29.312 79.5339 29.312C77.1339 29.312 75.5259 28.352 74.7099 26.432L76.4619 25.4C76.9099 26.712 77.9419 27.368 79.5579 27.368C80.3419 27.368 80.9579 27.2 81.4059 26.864C81.8539 26.528 82.0779 26.08 82.0779 25.52C82.0779 25.04 81.8939 24.648 81.5259 24.344C81.1739 24.04 80.6939 23.888 80.0859 23.888H78.3339V21.992H79.6299C80.2379 21.992 80.7099 21.848 81.0459 21.56C81.3819 21.256 81.5499 20.848 81.5499 20.336C81.5499 19.808 81.3499 19.392 80.9499 19.088C80.5499 18.768 80.0139 18.608 79.3419 18.608C77.9979 18.608 77.0859 19.176 76.6059 20.312L74.9019 19.328C75.7499 17.568 77.2299 16.688 79.3419 16.688C80.6219 16.688 81.6459 17.024 82.4139 17.696C83.1979 18.352 83.5899 19.176 83.5899 20.168C83.5899 21.384 83.1099 22.28 82.1499 22.856ZM96.5323 27.488C95.3163 28.704 93.8203 29.312 92.0443 29.312C90.2683 29.312 88.7723 28.704 87.5563 27.488C86.3403 26.272 85.7323 24.776 85.7323 23C85.7323 21.224 86.3403 19.728 87.5563 18.512C88.7723 17.296 90.2683 16.688 92.0443 16.688C93.8203 16.688 95.3163 17.296 96.5323 18.512C97.7643 19.744 98.3803 21.24 98.3803 23C98.3803 24.76 97.7643 26.256 96.5323 27.488ZM92.0443 27.272C93.2443 27.272 94.2523 26.864 95.0683 26.048C95.8843 25.232 96.2923 24.216 96.2923 23C96.2923 21.784 95.8843 20.768 95.0683 19.952C94.2523 19.136 93.2443 18.728 92.0443 18.728C90.8603 18.728 89.8603 19.136 89.0443 19.952C88.2283 20.768 87.8203 21.784 87.8203 23C87.8203 24.216 88.2283 25.232 89.0443 26.048C89.8603 26.864 90.8603 27.272 92.0443 27.272ZM108.834 22.832C110.066 23.344 110.682 24.272 110.682 25.616C110.682 26.64 110.346 27.464 109.674 28.088C109.002 28.696 108.058 29 106.842 29H100.842V17H106.362C107.546 17 108.466 17.296 109.122 17.888C109.794 18.48 110.13 19.272 110.13 20.264C110.13 21.416 109.698 22.272 108.834 22.832ZM106.266 18.872H102.882V22.016H106.266C107.482 22.016 108.09 21.48 108.09 20.408C108.09 19.384 107.482 18.872 106.266 18.872ZM102.882 27.104H106.722C107.33 27.104 107.794 26.96 108.114 26.672C108.45 26.384 108.618 25.976 108.618 25.448C108.618 24.952 108.45 24.568 108.114 24.296C107.794 24.008 107.33 23.864 106.722 23.864H102.882V27.104ZM115.024 21.32H118C119.2 21.32 120.192 21.68 120.976 22.4C121.776 23.104 122.176 24.024 122.176 25.16C122.176 26.296 121.776 27.224 120.976 27.944C120.176 28.648 119.184 29 118 29H112.936V17H115.024V21.32ZM123.736 29V17H125.824V29H123.736ZM115.024 27.056H118C118.608 27.056 119.112 26.88 119.512 26.528C119.912 26.176 120.112 25.72 120.112 25.16C120.112 24.6 119.904 24.144 119.488 23.792C119.088 23.424 118.592 23.24 118 23.24H115.024V27.056ZM137.462 15.2H130.982V13.376H137.462V15.2ZM131.078 25.424L137.726 17H139.406V29H137.342V20.576L130.694 29H129.014V17H131.078V25.424Z" fill="#051D65"/>
</svg>
