<svg width="22" height="22" viewBox="0 0 22 22" fill="none" xmlns="http://www.w3.org/2000/svg">
<g clip-path="url(#clip0_614_1440)">
<path d="M13.0155 11.0185L21.5819 2.45187C22.1394 1.89465 22.1394 0.993696 21.5819 0.436472C21.0247 -0.120751 20.1237 -0.120751 19.5665 0.436472L10.9999 9.0031L2.43352 0.436472C1.87603 -0.120751 0.975337 -0.120751 0.418114 0.436472C-0.139371 0.993696 -0.139371 1.89465 0.418114 2.45187L8.98448 11.0185L0.418114 19.5851C-0.139371 20.1424 -0.139371 21.0433 0.418114 21.6005C0.695812 21.8785 1.06094 22.0181 1.42581 22.0181C1.79068 22.0181 2.15556 21.8785 2.43352 21.6005L10.9999 13.0339L19.5665 21.6005C19.8445 21.8785 20.2093 22.0181 20.5742 22.0181C20.9391 22.0181 21.304 21.8785 21.5819 21.6005C22.1394 21.0433 22.1394 20.1424 21.5819 19.5851L13.0155 11.0185Z" fill="#082151"/>
</g>
<defs>
<clipPath id="clip0_614_1440">
<rect width="22" height="22" fill="white"/>
</clipPath>
</defs>
</svg>
