<svg width="32" height="20" viewBox="0 0 32 20" fill="none" xmlns="http://www.w3.org/2000/svg">
<path d="M14.7514 18.8908L0.511215 4.65044C0.181592 4.32108 0 3.88141 0 3.4126C0 2.94379 0.181592 2.50412 0.511215 2.17475L1.55966 1.12605C2.24284 0.443645 3.35321 0.443645 4.03535 1.12605L15.9934 13.0841L27.9646 1.11278C28.2943 0.783415 28.7337 0.601562 29.2022 0.601562C29.6713 0.601562 30.1107 0.783415 30.4406 1.11278L31.4888 2.16148C31.8184 2.49111 32 2.93052 32 3.39933C32 3.86814 31.8184 4.30781 31.4888 4.63717L17.2356 18.8908C16.905 19.221 16.4635 19.4023 15.9941 19.4013C15.523 19.4023 15.0818 19.221 14.7514 18.8908Z" fill="#051D65"/>
</svg>
