<svg width="699" height="265" viewBox="0 0 699 265" fill="none" xmlns="http://www.w3.org/2000/svg">
<path fill-rule="evenodd" clip-rule="evenodd" d="M52.3038 0C41.2581 0 32.3038 8.95431 32.3038 20V31.4147L0.410464 54.6923C-0.13682 55.0917 -0.136822 55.9083 0.410463 56.3077L32.3038 79.5853V245C32.3038 256.046 41.258 265 52.3037 265H678.304C689.349 265 698.304 256.046 698.304 245V20C698.304 8.95431 689.349 0 678.304 0H52.3038Z" fill="white"/>
<path d="M72.872 33.864C75.4 33.864 77.488 34.704 79.136 36.384C80.784 38.032 81.608 40.104 81.608 42.6C81.608 45.08 80.784 47.152 79.136 48.816C77.488 50.496 75.4 51.336 72.872 51.336C71.352 51.336 69.952 50.984 68.672 50.28C67.392 49.56 66.392 48.592 65.672 47.376L68.528 45.72C68.928 46.456 69.512 47.04 70.28 47.472C71.064 47.888 71.928 48.096 72.872 48.096C74.216 48.096 75.352 47.744 76.28 47.04C77.224 46.32 77.84 45.352 78.128 44.136H70.64V41.04H78.128C77.84 39.824 77.224 38.864 76.28 38.16C75.352 37.44 74.216 37.08 72.872 37.08C71.928 37.08 71.072 37.296 70.304 37.728C69.536 38.144 68.944 38.728 68.528 39.48L65.672 37.824C66.392 36.608 67.392 35.648 68.672 34.944C69.968 34.224 71.368 33.864 72.872 33.864ZM84.1064 39H93.6104V51H90.5144V41.976H87.2024V45.984C87.2024 49.68 85.5144 51.352 82.1384 51V48.096C82.7784 48.256 83.2664 48.144 83.6024 47.76C83.9384 47.376 84.1064 46.728 84.1064 45.816V39ZM108.08 46.272H99.032C99.432 47.776 100.56 48.528 102.416 48.528C103.6 48.528 104.496 48.128 105.104 47.328L107.6 48.768C106.416 50.48 104.672 51.336 102.368 51.336C100.384 51.336 98.792 50.736 97.592 49.536C96.392 48.336 95.792 46.824 95.792 45C95.792 43.208 96.384 41.704 97.568 40.488C98.736 39.272 100.256 38.664 102.128 38.664C103.904 38.664 105.352 39.272 106.472 40.488C107.624 41.704 108.2 43.208 108.2 45C108.2 45.336 108.16 45.76 108.08 46.272ZM98.984 43.872H105.104C104.928 43.088 104.568 42.488 104.024 42.072C103.496 41.656 102.864 41.448 102.128 41.448C101.296 41.448 100.608 41.664 100.064 42.096C99.52 42.512 99.16 43.104 98.984 43.872ZM119.793 39H122.841V51H119.841V43.992L116.793 48.792H116.409L113.337 43.944V51H110.361V39H113.409L116.601 44.04L119.793 39ZM137.33 46.272H128.282C128.682 47.776 129.81 48.528 131.666 48.528C132.85 48.528 133.746 48.128 134.354 47.328L136.85 48.768C135.666 50.48 133.922 51.336 131.618 51.336C129.634 51.336 128.042 50.736 126.842 49.536C125.642 48.336 125.042 46.824 125.042 45C125.042 43.208 125.634 41.704 126.818 40.488C127.986 39.272 129.506 38.664 131.378 38.664C133.154 38.664 134.602 39.272 135.722 40.488C136.874 41.704 137.45 43.208 137.45 45C137.45 45.336 137.41 45.76 137.33 46.272ZM128.234 43.872H134.354C134.178 43.088 133.818 42.488 133.274 42.072C132.746 41.656 132.114 41.448 131.378 41.448C130.546 41.448 129.858 41.664 129.314 42.096C128.77 42.512 128.41 43.104 128.234 43.872ZM147.483 43.536V39H150.579V51H147.483V46.44H142.707V51H139.611V39H142.707V43.536H147.483ZM152.24 39H162.872V41.976H159.128V51H156.032V41.976H152.24V39ZM173.177 40.416V39H176.273V51H173.177V49.584C172.249 50.752 170.945 51.336 169.265 51.336C167.665 51.336 166.289 50.728 165.137 49.512C164.001 48.28 163.433 46.776 163.433 45C163.433 43.24 164.001 41.744 165.137 40.512C166.289 39.28 167.665 38.664 169.265 38.664C170.945 38.664 172.249 39.248 173.177 40.416ZM167.465 47.448C168.089 48.072 168.881 48.384 169.841 48.384C170.801 48.384 171.593 48.072 172.217 47.448C172.857 46.808 173.177 45.992 173.177 45C173.177 44.008 172.857 43.2 172.217 42.576C171.593 41.936 170.801 41.616 169.841 41.616C168.881 41.616 168.089 41.936 167.465 42.576C166.841 43.2 166.529 44.008 166.529 45C166.529 45.992 166.841 46.808 167.465 47.448ZM186.064 38.664C187.68 38.664 189.056 39.28 190.192 40.512C191.344 41.744 191.92 43.24 191.92 45C191.92 46.792 191.344 48.296 190.192 49.512C189.072 50.728 187.696 51.336 186.064 51.336C184.384 51.336 183.088 50.752 182.176 49.584V55.8H179.08V39H182.176V40.416C183.088 39.248 184.384 38.664 186.064 38.664ZM183.112 47.448C183.736 48.072 184.528 48.384 185.488 48.384C186.448 48.384 187.24 48.072 187.864 47.448C188.504 46.808 188.824 45.992 188.824 45C188.824 44.008 188.504 43.2 187.864 42.576C187.24 41.936 186.448 41.616 185.488 41.616C184.528 41.616 183.736 41.936 183.112 42.576C182.488 43.2 182.176 44.008 182.176 45C182.176 45.992 182.488 46.808 183.112 47.448ZM201.976 43.536V39H205.072V51H201.976V46.44H197.2V51H194.104V39H197.2V43.536H201.976ZM211.004 42.84H213.332C214.692 42.84 215.788 43.216 216.62 43.968C217.452 44.704 217.868 45.688 217.868 46.92C217.868 48.152 217.452 49.144 216.62 49.896C215.788 50.632 214.692 51 213.332 51H207.908V39H211.004V42.84ZM219.188 51V39H222.284V51H219.188ZM211.004 48.264H213.356C213.788 48.264 214.14 48.144 214.412 47.904C214.7 47.648 214.844 47.32 214.844 46.92C214.844 46.52 214.7 46.192 214.412 45.936C214.14 45.68 213.788 45.552 213.356 45.552H211.004V48.264ZM234.087 37.464H227.127V34.776H234.087V37.464ZM228.135 45.816L233.775 39H236.079V51H233.055V44.184L227.415 51H225.111V39H228.135V45.816ZM250.076 47.064L252.74 39H256.052L251.684 51C250.468 54.376 248.356 55.976 245.348 55.8V52.92C246.164 52.936 246.804 52.784 247.268 52.464C247.748 52.144 248.132 51.608 248.42 50.856L243.572 39H246.86L250.076 47.064ZM264.509 38.664C266.125 38.664 267.501 39.28 268.637 40.512C269.789 41.744 270.365 43.24 270.365 45C270.365 46.792 269.789 48.296 268.637 49.512C267.517 50.728 266.141 51.336 264.509 51.336C262.829 51.336 261.533 50.752 260.621 49.584V55.8H257.525V39H260.621V40.416C261.533 39.248 262.829 38.664 264.509 38.664ZM261.557 47.448C262.181 48.072 262.973 48.384 263.933 48.384C264.893 48.384 265.685 48.072 266.309 47.448C266.949 46.808 267.269 45.992 267.269 45C267.269 44.008 266.949 43.2 266.309 42.576C265.685 41.936 264.893 41.616 263.933 41.616C262.973 41.616 262.181 41.936 261.557 42.576C260.933 43.2 260.621 44.008 260.621 45C260.621 45.992 260.933 46.808 261.557 47.448ZM282.773 49.512C281.557 50.728 280.053 51.336 278.261 51.336C276.469 51.336 274.965 50.728 273.749 49.512C272.533 48.296 271.925 46.792 271.925 45C271.925 43.224 272.533 41.728 273.749 40.512C274.981 39.28 276.485 38.664 278.261 38.664C280.037 38.664 281.541 39.28 282.773 40.512C284.005 41.744 284.621 43.24 284.621 45C284.621 46.776 284.005 48.28 282.773 49.512ZM275.933 47.376C276.557 48 277.333 48.312 278.261 48.312C279.189 48.312 279.965 48 280.589 47.376C281.213 46.752 281.525 45.96 281.525 45C281.525 44.04 281.213 43.248 280.589 42.624C279.965 42 279.189 41.688 278.261 41.688C277.333 41.688 276.557 42 275.933 42.624C275.325 43.264 275.021 44.056 275.021 45C275.021 45.944 275.325 46.736 275.933 47.376ZM295.439 44.856C296.559 45.4 297.119 46.312 297.119 47.592C297.119 48.616 296.767 49.44 296.063 50.064C295.359 50.688 294.375 51 293.111 51H286.799V39H292.631C293.879 39 294.855 39.312 295.559 39.936C296.263 40.544 296.615 41.36 296.615 42.384C296.615 43.44 296.223 44.264 295.439 44.856ZM292.343 41.544H289.703V43.704H292.343C293.223 43.704 293.663 43.344 293.663 42.624C293.663 41.904 293.223 41.544 292.343 41.544ZM289.703 48.384H292.751C293.647 48.384 294.095 48 294.095 47.232C294.095 46.896 293.975 46.632 293.735 46.44C293.495 46.248 293.167 46.152 292.751 46.152H289.703V48.384ZM310.721 46.272H301.673C302.073 47.776 303.201 48.528 305.057 48.528C306.241 48.528 307.137 48.128 307.745 47.328L310.241 48.768C309.057 50.48 307.313 51.336 305.009 51.336C303.025 51.336 301.433 50.736 300.233 49.536C299.033 48.336 298.433 46.824 298.433 45C298.433 43.208 299.025 41.704 300.209 40.488C301.377 39.272 302.897 38.664 304.769 38.664C306.545 38.664 307.993 39.272 309.113 40.488C310.265 41.704 310.841 43.208 310.841 45C310.841 45.336 310.801 45.76 310.721 46.272ZM301.625 43.872H307.745C307.569 43.088 307.209 42.488 306.665 42.072C306.137 41.656 305.505 41.448 304.769 41.448C303.937 41.448 303.249 41.664 302.705 42.096C302.161 42.512 301.801 43.104 301.625 43.872ZM320.874 43.536V39H323.97V51H320.874V46.44H316.098V51H313.002V39H316.098V43.536H320.874ZM329.903 42.84H332.231C333.591 42.84 334.687 43.216 335.519 43.968C336.351 44.704 336.767 45.688 336.767 46.92C336.767 48.152 336.351 49.144 335.519 49.896C334.687 50.632 333.591 51 332.231 51H326.807V39H329.903V42.84ZM329.903 48.264H332.255C332.687 48.264 333.039 48.144 333.311 47.904C333.599 47.648 333.743 47.32 333.743 46.92C333.743 46.52 333.599 46.192 333.311 45.936C333.039 45.68 332.687 45.552 332.255 45.552H329.903V48.264Z" fill="#333333"/>
<path d="M74.36 87.74C75.0533 88.0333 75.6 88.48 76 89.08C76.4 89.68 76.6 90.3533 76.6 91.1C76.6 92.18 76.22 93.1 75.46 93.86C74.7 94.62 73.78 95 72.7 95H66.6V81H72.24C73.2667 81 74.1533 81.3733 74.9 82.12C75.6333 82.8533 76 83.7333 76 84.76C76 86.0667 75.4533 87.06 74.36 87.74ZM72.24 82.32H68V87.2H72.24C72.88 87.2 73.4333 86.9667 73.9 86.5C74.3667 86.0067 74.6 85.4267 74.6 84.76C74.6 84.1067 74.3667 83.5333 73.9 83.04C73.4333 82.56 72.88 82.32 72.24 82.32ZM68 93.68H72.7C73.3933 93.68 73.98 93.4333 74.46 92.94C74.9533 92.4467 75.2 91.8333 75.2 91.1C75.2 90.38 74.9533 89.7733 74.46 89.28C73.98 88.7733 73.3933 88.52 72.7 88.52H68V93.68ZM80.1223 88.8H82.8623C83.7823 88.8 84.569 89.0933 85.2223 89.68C85.8757 90.2533 86.2023 90.9933 86.2023 91.9C86.2023 92.82 85.8757 93.5667 85.2223 94.14C84.5957 94.7133 83.809 95 82.8623 95H78.8023V85H80.1223V88.8ZM87.6023 95V85H88.9223V95H87.6023ZM80.1223 93.72H82.8623C83.4357 93.72 83.9157 93.5533 84.3023 93.22C84.689 92.8733 84.8823 92.4333 84.8823 91.9C84.8823 91.3667 84.689 90.9333 84.3023 90.6C83.9157 90.2533 83.4357 90.08 82.8623 90.08H80.1223V93.72ZM100.692 93.38L103.932 85H105.332L101.052 95.92C100.652 96.9333 100.092 97.7133 99.372 98.26C98.6654 98.82 97.8787 99.0667 97.012 99V97.76C98.212 97.9067 99.1254 97.2133 99.752 95.68L100.012 95.06L95.532 85H96.932L100.692 93.38ZM113.932 89.8L118.412 95H116.812L112.732 90.18V95H111.412V90.18L107.332 95H105.732L110.212 89.8L105.932 85H107.532L111.412 89.44V85H112.732V89.44L116.612 85H118.212L113.932 89.8ZM124.028 84.76C125.521 84.76 126.714 85.2867 127.608 86.34C128.528 87.38 128.988 88.6133 128.988 90.04C128.988 90.1067 128.974 90.3133 128.948 90.66H120.168C120.301 91.66 120.728 92.46 121.448 93.06C122.168 93.66 123.068 93.96 124.148 93.96C125.668 93.96 126.741 93.3933 127.368 92.26L128.528 92.94C128.088 93.66 127.481 94.2267 126.708 94.64C125.948 95.04 125.088 95.24 124.128 95.24C122.554 95.24 121.274 94.7467 120.288 93.76C119.301 92.7733 118.808 91.52 118.808 90C118.808 88.4933 119.294 87.2467 120.268 86.26C121.241 85.26 122.494 84.76 124.028 84.76ZM124.028 86.04C122.988 86.04 122.114 86.3467 121.408 86.96C120.714 87.5733 120.301 88.38 120.168 89.38H127.628C127.481 88.3133 127.074 87.4933 126.408 86.92C125.714 86.3333 124.921 86.04 124.028 86.04ZM136.088 85H144.488V95H143.168V86.28H137.408V95H136.088V85ZM155.659 93.74C154.632 94.74 153.392 95.24 151.939 95.24C150.459 95.24 149.212 94.74 148.199 93.74C147.186 92.7267 146.679 91.48 146.679 90C146.679 88.52 147.186 87.28 148.199 86.28C149.212 85.2667 150.459 84.76 151.939 84.76C153.406 84.76 154.646 85.2667 155.659 86.28C156.686 87.28 157.199 88.52 157.199 90C157.199 91.4667 156.686 92.7133 155.659 93.74ZM149.139 92.82C149.899 93.58 150.832 93.96 151.939 93.96C153.046 93.96 153.979 93.58 154.739 92.82C155.499 92.0333 155.879 91.0933 155.879 90C155.879 88.8933 155.499 87.96 154.739 87.2C153.979 86.4267 153.046 86.04 151.939 86.04C150.832 86.04 149.899 86.4267 149.139 87.2C148.379 87.96 147.999 88.8933 147.999 90C147.999 91.0933 148.379 92.0333 149.139 92.82ZM166.488 89.36V85H167.808V95H166.488V90.64H160.728V95H159.408V85H160.728V89.36H166.488ZM171.919 92.7L177.879 85H178.999V95H177.679V87.3L171.719 95H170.599V85H171.919V92.7ZM190.071 85H191.591V95H190.271V87.02L186.771 92.7H186.611L183.111 87.02V95H181.791V85H183.311L186.691 90.48L190.071 85ZM202.988 86.96V85H204.308V95H202.988V93.04C202.068 94.5067 200.722 95.24 198.948 95.24C197.522 95.24 196.302 94.7333 195.288 93.72C194.288 92.7067 193.788 91.4667 193.788 90C193.788 88.5333 194.288 87.2933 195.288 86.28C196.302 85.2667 197.522 84.76 198.948 84.76C200.722 84.76 202.068 85.4933 202.988 86.96ZM196.248 92.82C197.008 93.58 197.942 93.96 199.048 93.96C200.155 93.96 201.088 93.58 201.848 92.82C202.608 92.0333 202.988 91.0933 202.988 90C202.988 88.8933 202.608 87.96 201.848 87.2C201.088 86.4267 200.155 86.04 199.048 86.04C197.942 86.04 197.008 86.4267 196.248 87.2C195.488 87.96 195.108 88.8933 195.108 90C195.108 91.0933 195.488 92.0333 196.248 92.82ZM211.723 84.76C213.216 84.76 214.41 85.2867 215.303 86.34C216.223 87.38 216.683 88.6133 216.683 90.04C216.683 90.1067 216.67 90.3133 216.643 90.66H207.863C207.996 91.66 208.423 92.46 209.143 93.06C209.863 93.66 210.763 93.96 211.843 93.96C213.363 93.96 214.436 93.3933 215.063 92.26L216.223 92.94C215.783 93.66 215.176 94.2267 214.403 94.64C213.643 95.04 212.783 95.24 211.823 95.24C210.25 95.24 208.97 94.7467 207.983 93.76C206.996 92.7733 206.503 91.52 206.503 90C206.503 88.4933 206.99 87.2467 207.963 86.26C208.936 85.26 210.19 84.76 211.723 84.76ZM211.723 86.04C210.683 86.04 209.81 86.3467 209.103 86.96C208.41 87.5733 207.996 88.38 207.863 89.38H215.323C215.176 88.3133 214.77 87.4933 214.103 86.92C213.41 86.3333 212.616 86.04 211.723 86.04ZM217.192 85H225.592V86.28H222.052V95H220.732V86.28H217.192V85ZM231.43 84.76C232.923 84.76 234.117 85.2867 235.01 86.34C235.93 87.38 236.39 88.6133 236.39 90.04C236.39 90.1067 236.377 90.3133 236.35 90.66H227.57C227.703 91.66 228.13 92.46 228.85 93.06C229.57 93.66 230.47 93.96 231.55 93.96C233.07 93.96 234.143 93.3933 234.77 92.26L235.93 92.94C235.49 93.66 234.883 94.2267 234.11 94.64C233.35 95.04 232.49 95.24 231.53 95.24C229.957 95.24 228.677 94.7467 227.69 93.76C226.703 92.7733 226.21 91.52 226.21 90C226.21 88.4933 226.697 87.2467 227.67 86.26C228.643 85.26 229.897 84.76 231.43 84.76ZM231.43 86.04C230.39 86.04 229.517 86.3467 228.81 86.96C228.117 87.5733 227.703 88.38 227.57 89.38H235.03C234.883 88.3133 234.477 87.4933 233.81 86.92C233.117 86.3333 232.323 86.04 231.43 86.04ZM249.85 89.86C250.943 90.26 251.49 91.04 251.49 92.2C251.49 93.0267 251.21 93.7 250.65 94.22C250.103 94.74 249.337 95 248.35 95H243.49V85H247.95C248.91 85 249.657 85.2467 250.19 85.74C250.737 86.2333 251.01 86.88 251.01 87.68C251.01 88.68 250.623 89.4067 249.85 89.86ZM247.95 86.28H244.81V89.32H247.95C249.11 89.32 249.69 88.8 249.69 87.76C249.69 87.2933 249.537 86.9333 249.23 86.68C248.937 86.4133 248.51 86.28 247.95 86.28ZM244.81 93.72H248.35C248.937 93.72 249.383 93.58 249.69 93.3C250.01 93.02 250.17 92.6267 250.17 92.12C250.17 91.64 250.01 91.2667 249.69 91C249.383 90.7333 248.937 90.6 248.35 90.6H244.81V93.72ZM254.81 88.8H257.55C258.47 88.8 259.257 89.0933 259.91 89.68C260.563 90.2533 260.89 90.9933 260.89 91.9C260.89 92.82 260.563 93.5667 259.91 94.14C259.283 94.7133 258.497 95 257.55 95H253.49V85H254.81V88.8ZM262.29 95V85H263.61V95H262.29ZM254.81 93.72H257.55C258.123 93.72 258.603 93.5533 258.99 93.22C259.377 92.8733 259.57 92.4333 259.57 91.9C259.57 91.3667 259.377 90.9333 258.99 90.6C258.603 90.2533 258.123 90.08 257.55 90.08H254.81V93.72ZM271.08 95.24C269.573 95.24 268.32 94.74 267.32 93.74C266.32 92.7133 265.82 91.4667 265.82 90C265.82 88.52 266.32 87.28 267.32 86.28C268.32 85.2667 269.573 84.76 271.08 84.76C272.066 84.76 272.953 85 273.74 85.48C274.526 85.9467 275.1 86.58 275.46 87.38L274.38 88C274.113 87.4 273.68 86.9267 273.08 86.58C272.493 86.22 271.826 86.04 271.08 86.04C269.973 86.04 269.04 86.4267 268.28 87.2C267.52 87.96 267.14 88.8933 267.14 90C267.14 91.0933 267.52 92.0333 268.28 92.82C269.04 93.58 269.973 93.96 271.08 93.96C271.813 93.96 272.473 93.7867 273.06 93.44C273.66 93.0933 274.126 92.6133 274.46 92L275.56 92.64C275.146 93.44 274.54 94.0733 273.74 94.54C272.94 95.0067 272.053 95.24 271.08 95.24ZM280.175 89.8L285.535 95H283.775L278.775 90.18V95H277.455V85H278.775V89.42L283.535 85H285.335L280.175 89.8ZM294.941 86.96V85H296.261V95H294.941V93.04C294.021 94.5067 292.675 95.24 290.901 95.24C289.475 95.24 288.255 94.7333 287.241 93.72C286.241 92.7067 285.741 91.4667 285.741 90C285.741 88.5333 286.241 87.2933 287.241 86.28C288.255 85.2667 289.475 84.76 290.901 84.76C292.675 84.76 294.021 85.4933 294.941 86.96ZM288.201 92.82C288.961 93.58 289.895 93.96 291.001 93.96C292.108 93.96 293.041 93.58 293.801 92.82C294.561 92.0333 294.941 91.0933 294.941 90C294.941 88.8933 294.561 87.96 293.801 87.2C293.041 86.4267 292.108 86.04 291.001 86.04C289.895 86.04 288.961 86.4267 288.201 87.2C287.441 87.96 287.061 88.8933 287.061 90C287.061 91.0933 287.441 92.0333 288.201 92.82ZM304.216 89.86C305.376 90.3 305.956 91.1 305.956 92.26C305.956 93.1 305.63 93.8067 304.976 94.38C304.35 94.9533 303.43 95.24 302.216 95.24C300.19 95.24 298.87 94.44 298.256 92.84L299.376 92.18C299.803 93.3667 300.75 93.96 302.216 93.96C302.976 93.96 303.57 93.8 303.996 93.48C304.423 93.1467 304.636 92.7133 304.636 92.18C304.636 91.7 304.463 91.32 304.116 91.04C303.77 90.7467 303.303 90.6 302.716 90.6H301.256V89.32H302.316C302.89 89.32 303.336 89.18 303.656 88.9C303.99 88.6067 304.156 88.2067 304.156 87.7C304.156 87.22 303.956 86.8267 303.556 86.52C303.17 86.2 302.656 86.04 302.016 86.04C300.776 86.04 299.943 86.54 299.516 87.54L298.416 86.9C299.083 85.4733 300.283 84.76 302.016 84.76C303.083 84.76 303.923 85.04 304.536 85.6C305.163 86.1467 305.476 86.82 305.476 87.62C305.476 88.6467 305.056 89.3933 304.216 89.86ZM309.283 88.8H312.023C312.943 88.8 313.729 89.0933 314.383 89.68C315.036 90.2533 315.363 90.9933 315.363 91.9C315.363 92.82 315.036 93.5667 314.383 94.14C313.756 94.7133 312.969 95 312.023 95H307.963V85H309.283V88.8ZM316.763 95V85H318.083V95H316.763ZM309.283 93.72H312.023C312.596 93.72 313.076 93.5533 313.463 93.22C313.849 92.8733 314.043 92.4333 314.043 91.9C314.043 91.3667 313.849 90.9333 313.463 90.6C313.076 90.2533 312.596 90.08 312.023 90.08H309.283V93.72ZM327.252 89.86C328.346 90.26 328.892 91.04 328.892 92.2C328.892 93.0267 328.612 93.7 328.052 94.22C327.506 94.74 326.739 95 325.752 95H320.892V85H325.352C326.312 85 327.059 85.2467 327.592 85.74C328.139 86.2333 328.412 86.88 328.412 87.68C328.412 88.68 328.026 89.4067 327.252 89.86ZM325.352 86.28H322.212V89.32H325.352C326.512 89.32 327.092 88.8 327.092 87.76C327.092 87.2933 326.939 86.9333 326.632 86.68C326.339 86.4133 325.912 86.28 325.352 86.28ZM322.212 93.72H325.752C326.339 93.72 326.786 93.58 327.092 93.3C327.412 93.02 327.572 92.6267 327.572 92.12C327.572 91.64 327.412 91.2667 327.092 91C326.786 90.7333 326.339 90.6 325.752 90.6H322.212V93.72ZM339.492 86.96V85H340.812V95H339.492V93.04C338.572 94.5067 337.226 95.24 335.452 95.24C334.026 95.24 332.806 94.7333 331.792 93.72C330.792 92.7067 330.292 91.4667 330.292 90C330.292 88.5333 330.792 87.2933 331.792 86.28C332.806 85.2667 334.026 84.76 335.452 84.76C337.226 84.76 338.572 85.4933 339.492 86.96ZM332.752 92.82C333.512 93.58 334.446 93.96 335.552 93.96C336.659 93.96 337.592 93.58 338.352 92.82C339.112 92.0333 339.492 91.0933 339.492 90C339.492 88.8933 339.112 87.96 338.352 87.2C337.592 86.4267 336.659 86.04 335.552 86.04C334.446 86.04 333.512 86.4267 332.752 87.2C331.992 87.96 331.612 88.8933 331.612 90C331.612 91.0933 331.992 92.0333 332.752 92.82ZM350.687 89.36V85H352.007V95H350.687V90.64H344.927V95H343.607V85H344.927V89.36H350.687ZM356.118 92.7L362.078 85H363.198V95H361.878V87.3L355.918 95H354.798V85H356.118V92.7ZM369.13 85H373.19V95H371.87V91.16H370.15L367.07 95H365.39L368.55 91.12C367.737 91 367.07 90.6667 366.55 90.12C366.043 89.56 365.79 88.8867 365.79 88.1C365.79 87.2067 366.11 86.4667 366.75 85.88C367.417 85.2933 368.21 85 369.13 85ZM369.13 89.92H371.87V86.28H369.13C368.557 86.28 368.077 86.4533 367.69 86.8C367.303 87.1333 367.11 87.5667 367.11 88.1C367.11 88.6333 367.303 89.0733 367.69 89.42C368.077 89.7533 368.557 89.92 369.13 89.92ZM388.07 89.36V85H389.39V95H388.07V90.64H382.31V95H380.99V85H382.31V89.36H388.07ZM400.781 86.96V85H402.101V95H400.781V93.04C399.861 94.5067 398.515 95.24 396.741 95.24C395.315 95.24 394.095 94.7333 393.081 93.72C392.081 92.7067 391.581 91.4667 391.581 90C391.581 88.5333 392.081 87.2933 393.081 86.28C394.095 85.2667 395.315 84.76 396.741 84.76C398.515 84.76 399.861 85.4933 400.781 86.96ZM394.041 92.82C394.801 93.58 395.735 93.96 396.841 93.96C397.948 93.96 398.881 93.58 399.641 92.82C400.401 92.0333 400.781 91.0933 400.781 90C400.781 88.8933 400.401 87.96 399.641 87.2C398.881 86.4267 397.948 86.04 396.841 86.04C395.735 86.04 394.801 86.4267 394.041 87.2C393.281 87.96 392.901 88.8933 392.901 90C392.901 91.0933 393.281 92.0333 394.041 92.82ZM418.276 93.74C417.249 94.74 416.009 95.24 414.556 95.24C413.076 95.24 411.829 94.74 410.816 93.74C409.803 92.7267 409.296 91.48 409.296 90C409.296 88.52 409.803 87.28 410.816 86.28C411.829 85.2667 413.076 84.76 414.556 84.76C416.023 84.76 417.263 85.2667 418.276 86.28C419.303 87.28 419.816 88.52 419.816 90C419.816 91.4667 419.303 92.7133 418.276 93.74ZM411.756 92.82C412.516 93.58 413.449 93.96 414.556 93.96C415.663 93.96 416.596 93.58 417.356 92.82C418.116 92.0333 418.496 91.0933 418.496 90C418.496 88.8933 418.116 87.96 417.356 87.2C416.596 86.4267 415.663 86.04 414.556 86.04C413.449 86.04 412.516 86.4267 411.756 87.2C410.996 87.96 410.616 88.8933 410.616 90C410.616 91.0933 410.996 92.0333 411.756 92.82ZM426.465 95.24C425.038 95.24 423.838 94.7667 422.865 93.82C421.905 92.86 421.425 91.62 421.425 90.1C421.425 88.3933 421.678 87.0867 422.185 86.18C422.692 85.26 423.718 84.4267 425.265 83.68C425.758 83.4533 426.145 83.28 426.425 83.16C426.892 82.9733 427.258 82.8133 427.525 82.68C428.685 82.1467 429.272 81.4867 429.285 80.7L430.325 81.3C430.258 81.6333 430.152 81.9333 430.005 82.2C429.832 82.4933 429.658 82.7267 429.485 82.9C429.325 83.0733 429.072 83.26 428.725 83.46C428.498 83.5933 428.225 83.74 427.905 83.9L426.905 84.32L425.965 84.72C425.045 85.12 424.358 85.54 423.905 85.98C423.465 86.4067 423.152 86.9667 422.965 87.66C423.392 87.0867 423.952 86.6533 424.645 86.36C425.338 86.0533 426.038 85.9 426.745 85.9C428.078 85.9 429.178 86.34 430.045 87.22C430.925 88.0867 431.365 89.2 431.365 90.56C431.365 91.9067 430.898 93.0267 429.965 93.92C429.045 94.8 427.878 95.24 426.465 95.24ZM423.865 92.94C424.558 93.5933 425.425 93.92 426.465 93.92C427.505 93.92 428.358 93.6067 429.025 92.98C429.705 92.34 430.045 91.5333 430.045 90.56C430.045 89.5733 429.725 88.7667 429.085 88.14C428.458 87.5 427.618 87.18 426.565 87.18C425.618 87.18 424.758 87.48 423.985 88.08C423.212 88.6533 422.825 89.44 422.825 90.44C422.825 91.4533 423.172 92.2867 423.865 92.94ZM446.773 85V93.72H448.173V97.68H446.853V95H433.373V85H434.693V93.72H439.413V85H440.733V93.72H445.453V85H446.773ZM451.49 92.7L457.45 85H458.57V95H457.25V87.3L451.29 95H450.17V85H451.49V92.7ZM465.981 84.76C467.474 84.76 468.668 85.2867 469.561 86.34C470.481 87.38 470.941 88.6133 470.941 90.04C470.941 90.1067 470.928 90.3133 470.901 90.66H462.121C462.254 91.66 462.681 92.46 463.401 93.06C464.121 93.66 465.021 93.96 466.101 93.96C467.621 93.96 468.694 93.3933 469.321 92.26L470.481 92.94C470.041 93.66 469.434 94.2267 468.661 94.64C467.901 95.04 467.041 95.24 466.081 95.24C464.508 95.24 463.228 94.7467 462.241 93.76C461.254 92.7733 460.761 91.52 460.761 90C460.761 88.4933 461.248 87.2467 462.221 86.26C463.194 85.26 464.448 84.76 465.981 84.76ZM465.981 86.04C464.941 86.04 464.068 86.3467 463.361 86.96C462.668 87.5733 462.254 88.38 462.121 89.38H469.581C469.434 88.3133 469.028 87.4933 468.361 86.92C467.668 86.3333 466.874 86.04 465.981 86.04ZM476.841 85H485.241V86.28H481.701V95H480.381V86.28H476.841V85ZM491.079 84.76C492.572 84.76 493.765 85.2867 494.659 86.34C495.579 87.38 496.039 88.6133 496.039 90.04C496.039 90.1067 496.025 90.3133 495.999 90.66H487.219C487.352 91.66 487.779 92.46 488.499 93.06C489.219 93.66 490.119 93.96 491.199 93.96C492.719 93.96 493.792 93.3933 494.419 92.26L495.579 92.94C495.139 93.66 494.532 94.2267 493.759 94.64C492.999 95.04 492.139 95.24 491.179 95.24C489.605 95.24 488.325 94.7467 487.339 93.76C486.352 92.7733 485.859 91.52 485.859 90C485.859 88.4933 486.345 87.2467 487.319 86.26C488.292 85.26 489.545 84.76 491.079 84.76ZM491.079 86.04C490.039 86.04 489.165 86.3467 488.459 86.96C487.765 87.5733 487.352 88.38 487.219 89.38H494.679C494.532 88.3133 494.125 87.4933 493.459 86.92C492.765 86.3333 491.972 86.04 491.079 86.04ZM506.418 85H507.938V95H506.618V87.02L503.118 92.7H502.958L499.458 87.02V95H498.138V85H499.658L503.038 90.48L506.418 85ZM512.056 88.8H514.796C515.716 88.8 516.503 89.0933 517.156 89.68C517.809 90.2533 518.136 90.9933 518.136 91.9C518.136 92.82 517.809 93.5667 517.156 94.14C516.529 94.7133 515.743 95 514.796 95H510.736V85H512.056V88.8ZM519.536 95V85H520.856V95H519.536ZM512.056 93.72H514.796C515.369 93.72 515.849 93.5533 516.236 93.22C516.623 92.8733 516.816 92.4333 516.816 91.9C516.816 91.3667 516.623 90.9333 516.236 90.6C515.849 90.2533 515.369 90.08 514.796 90.08H512.056V93.72ZM524.266 93.3H525.866L524.666 97.8H523.466L524.266 93.3ZM532.27 85H540.67V86.28H537.13V95H535.81V86.28H532.27V85ZM550.488 86.96V85H551.808V95H550.488V93.04C549.568 94.5067 548.222 95.24 546.448 95.24C545.022 95.24 543.802 94.7333 542.788 93.72C541.788 92.7067 541.288 91.4667 541.288 90C541.288 88.5333 541.788 87.2933 542.788 86.28C543.802 85.2667 545.022 84.76 546.448 84.76C548.222 84.76 549.568 85.4933 550.488 86.96ZM543.748 92.82C544.508 93.58 545.442 93.96 546.548 93.96C547.655 93.96 548.588 93.58 549.348 92.82C550.108 92.0333 550.488 91.0933 550.488 90C550.488 88.8933 550.108 87.96 549.348 87.2C548.588 86.4267 547.655 86.04 546.548 86.04C545.442 86.04 544.508 86.4267 543.748 87.2C542.988 87.96 542.608 88.8933 542.608 90C542.608 91.0933 542.988 92.0333 543.748 92.82ZM557.323 89.8L562.683 95H560.923L555.923 90.18V95H554.603V85H555.923V89.42L560.683 85H562.483L557.323 89.8ZM565.806 92.7L571.766 85H572.886V95H571.566V87.3L565.606 95H564.486V85H565.806V92.7ZM580.297 84.76C581.791 84.76 582.984 85.2867 583.877 86.34C584.797 87.38 585.257 88.6133 585.257 90.04C585.257 90.1067 585.244 90.3133 585.217 90.66H576.437C576.571 91.66 576.997 92.46 577.717 93.06C578.437 93.66 579.337 93.96 580.417 93.96C581.937 93.96 583.011 93.3933 583.637 92.26L584.797 92.94C584.357 93.66 583.751 94.2267 582.977 94.64C582.217 95.04 581.357 95.24 580.397 95.24C578.824 95.24 577.544 94.7467 576.557 93.76C575.571 92.7733 575.077 91.52 575.077 90C575.077 88.4933 575.564 87.2467 576.537 86.26C577.511 85.26 578.764 84.76 580.297 84.76ZM580.297 86.04C579.257 86.04 578.384 86.3467 577.677 86.96C576.984 87.5733 576.571 88.38 576.437 89.38H583.897C583.751 88.3133 583.344 87.4933 582.677 86.92C581.984 86.3333 581.191 86.04 580.297 86.04ZM595.077 89.8L600.437 95H598.677L593.677 90.18V95H592.357V85H593.677V89.42L598.437 85H600.237L595.077 89.8ZM609.844 86.96V85H611.164V95H609.844V93.04C608.924 94.5067 607.577 95.24 605.804 95.24C604.377 95.24 603.157 94.7333 602.144 93.72C601.144 92.7067 600.644 91.4667 600.644 90C600.644 88.5333 601.144 87.2933 602.144 86.28C603.157 85.2667 604.377 84.76 605.804 84.76C607.577 84.76 608.924 85.4933 609.844 86.96ZM603.104 92.82C603.864 93.58 604.797 93.96 605.904 93.96C607.01 93.96 607.944 93.58 608.704 92.82C609.464 92.0333 609.844 91.0933 609.844 90C609.844 88.8933 609.464 87.96 608.704 87.2C607.944 86.4267 607.01 86.04 605.904 86.04C604.797 86.04 603.864 86.4267 603.104 87.2C602.344 87.96 601.964 88.8933 601.964 90C601.964 91.0933 602.344 92.0333 603.104 92.82ZM616.679 89.8L622.039 95H620.279L615.279 90.18V95H613.959V85H615.279V89.42L620.039 85H621.839L616.679 89.8ZM625.841 85.9C625.841 86.2067 625.735 86.4667 625.521 86.68C625.308 86.8933 625.048 87 624.741 87C624.435 87 624.175 86.8933 623.961 86.68C623.748 86.4667 623.641 86.2067 623.641 85.9C623.641 85.5933 623.748 85.3333 623.961 85.12C624.175 84.9067 624.435 84.8 624.741 84.8C625.048 84.8 625.308 84.9067 625.521 85.12C625.735 85.3333 625.841 85.5933 625.841 85.9ZM625.841 94.1C625.841 94.4067 625.735 94.6667 625.521 94.88C625.308 95.0933 625.048 95.2 624.741 95.2C624.435 95.2 624.175 95.0933 623.961 94.88C623.748 94.6667 623.641 94.4067 623.641 94.1C623.641 93.7933 623.748 93.5333 623.961 93.32C624.175 93.1067 624.435 93 624.741 93C625.048 93 625.308 93.1067 625.521 93.32C625.735 93.5333 625.841 93.7933 625.841 94.1ZM71.06 119.24C69.5533 119.24 68.3 118.74 67.3 117.74C66.3 116.713 65.8 115.467 65.8 114C65.8 112.52 66.3 111.28 67.3 110.28C68.3 109.267 69.5533 108.76 71.06 108.76C72.0467 108.76 72.9333 109 73.72 109.48C74.5067 109.947 75.08 110.58 75.44 111.38L74.36 112C74.0933 111.4 73.66 110.927 73.06 110.58C72.4733 110.22 71.8067 110.04 71.06 110.04C69.9533 110.04 69.02 110.427 68.26 111.2C67.5 111.96 67.12 112.893 67.12 114C67.12 115.093 67.5 116.033 68.26 116.82C69.02 117.58 69.9533 117.96 71.06 117.96C71.7933 117.96 72.4533 117.787 73.04 117.44C73.64 117.093 74.1067 116.613 74.44 116L75.54 116.64C75.1267 117.44 74.52 118.073 73.72 118.54C72.92 119.007 72.0333 119.24 71.06 119.24ZM81.9575 108.76C83.4508 108.76 84.6442 109.287 85.5375 110.34C86.4575 111.38 86.9175 112.613 86.9175 114.04C86.9175 114.107 86.9042 114.313 86.8775 114.66H78.0975C78.2308 115.66 78.6575 116.46 79.3775 117.06C80.0975 117.66 80.9975 117.96 82.0775 117.96C83.5975 117.96 84.6708 117.393 85.2975 116.26L86.4575 116.94C86.0175 117.66 85.4108 118.227 84.6375 118.64C83.8775 119.04 83.0175 119.24 82.0575 119.24C80.4842 119.24 79.2042 118.747 78.2175 117.76C77.2308 116.773 76.7375 115.52 76.7375 114C76.7375 112.493 77.2242 111.247 78.1975 110.26C79.1708 109.26 80.4242 108.76 81.9575 108.76ZM81.9575 110.04C80.9175 110.04 80.0442 110.347 79.3375 110.96C78.6442 111.573 78.2308 112.38 78.0975 113.38H85.5575C85.4108 112.313 85.0042 111.493 84.3375 110.92C83.6442 110.333 82.8508 110.04 81.9575 110.04ZM97.2972 109H98.8172V119H97.4972V111.02L93.9972 116.7H93.8372L90.3372 111.02V119H89.0172V109H90.5372L93.9172 114.48L97.2972 109ZM102.935 112.8H105.675C106.595 112.8 107.382 113.093 108.035 113.68C108.688 114.253 109.015 114.993 109.015 115.9C109.015 116.82 108.688 117.567 108.035 118.14C107.408 118.713 106.622 119 105.675 119H101.615V109H102.935V112.8ZM102.935 117.72H105.675C106.248 117.72 106.728 117.553 107.115 117.22C107.502 116.873 107.695 116.433 107.695 115.9C107.695 115.367 107.502 114.933 107.115 114.6C106.728 114.253 106.248 114.08 105.675 114.08H102.935V117.72ZM113.544 109H117.604V119H116.284V115.16H114.564L111.484 119H109.804L112.964 115.12C112.151 115 111.484 114.667 110.964 114.12C110.457 113.56 110.204 112.887 110.204 112.1C110.204 111.207 110.524 110.467 111.164 109.88C111.831 109.293 112.624 109 113.544 109ZM113.544 113.92H116.284V110.28H113.544C112.971 110.28 112.491 110.453 112.104 110.8C111.717 111.133 111.524 111.567 111.524 112.1C111.524 112.633 111.717 113.073 112.104 113.42C112.491 113.753 112.971 113.92 113.544 113.92ZM121.004 117.3H122.604L121.404 121.8H120.204L121.004 117.3ZM130.209 109H138.609V119H137.289V110.28H131.529V119H130.209V109ZM149.78 117.74C148.753 118.74 147.513 119.24 146.06 119.24C144.58 119.24 143.333 118.74 142.32 117.74C141.307 116.727 140.8 115.48 140.8 114C140.8 112.52 141.307 111.28 142.32 110.28C143.333 109.267 144.58 108.76 146.06 108.76C147.527 108.76 148.767 109.267 149.78 110.28C150.807 111.28 151.32 112.52 151.32 114C151.32 115.467 150.807 116.713 149.78 117.74ZM143.26 116.82C144.02 117.58 144.953 117.96 146.06 117.96C147.167 117.96 148.1 117.58 148.86 116.82C149.62 116.033 150 115.093 150 114C150 112.893 149.62 111.96 148.86 111.2C148.1 110.427 147.167 110.04 146.06 110.04C144.953 110.04 144.02 110.427 143.26 111.2C142.5 111.96 142.12 112.893 142.12 114C142.12 115.093 142.5 116.033 143.26 116.82ZM156.249 113.8L161.609 119H159.849L154.849 114.18V119H153.529V109H154.849V113.42L159.609 109H161.409L156.249 113.8ZM166.981 117.38L170.221 109H171.621L167.341 119.92C166.941 120.933 166.381 121.713 165.661 122.26C164.954 122.82 164.168 123.067 163.301 123V121.76C164.501 121.907 165.414 121.213 166.041 119.68L166.301 119.06L161.821 109H163.221L166.981 117.38ZM173.216 109H181.616V119H180.296V110.28H174.536V119H173.216V109ZM187.128 113.8L192.488 119H190.728L185.728 114.18V119H184.408V109H185.728V113.42L190.488 109H192.288L187.128 113.8ZM195.611 116.7L201.571 109H202.691V119H201.371V111.3L195.411 119H194.291V109H195.611V116.7ZM206.082 117.3H207.682L206.482 121.8H205.282L206.082 117.3ZM220.647 108.76C222.073 108.76 223.287 109.267 224.287 110.28C225.3 111.293 225.807 112.533 225.807 114C225.807 115.467 225.3 116.707 224.287 117.72C223.287 118.733 222.073 119.24 220.647 119.24C218.873 119.24 217.527 118.507 216.607 117.04V123H215.287V109H216.607V110.96C217.527 109.493 218.873 108.76 220.647 108.76ZM217.747 116.82C218.507 117.58 219.44 117.96 220.547 117.96C221.653 117.96 222.587 117.58 223.347 116.82C224.107 116.033 224.487 115.093 224.487 114C224.487 112.893 224.107 111.96 223.347 111.2C222.587 110.427 221.653 110.04 220.547 110.04C219.44 110.04 218.507 110.427 217.747 111.2C216.987 111.96 216.607 112.893 216.607 114C216.607 115.093 216.987 116.033 217.747 116.82ZM236.602 110.96V109H237.922V119H236.602V117.04C235.682 118.507 234.335 119.24 232.562 119.24C231.135 119.24 229.915 118.733 228.902 117.72C227.902 116.707 227.402 115.467 227.402 114C227.402 112.533 227.902 111.293 228.902 110.28C229.915 109.267 231.135 108.76 232.562 108.76C234.335 108.76 235.682 109.493 236.602 110.96ZM229.862 116.82C230.622 117.58 231.555 117.96 232.662 117.96C233.768 117.96 234.702 117.58 235.462 116.82C236.222 116.033 236.602 115.093 236.602 114C236.602 112.893 236.222 111.96 235.462 111.2C234.702 110.427 233.768 110.04 232.662 110.04C231.555 110.04 230.622 110.427 229.862 111.2C229.102 111.96 228.722 112.893 228.722 114C228.722 115.093 229.102 116.033 229.862 116.82ZM245.156 119.24C243.73 119.24 242.53 118.767 241.556 117.82C240.596 116.86 240.116 115.62 240.116 114.1C240.116 112.393 240.37 111.087 240.876 110.18C241.383 109.26 242.41 108.427 243.956 107.68C244.45 107.453 244.836 107.28 245.116 107.16C245.583 106.973 245.95 106.813 246.216 106.68C247.376 106.147 247.963 105.487 247.976 104.7L249.016 105.3C248.95 105.633 248.843 105.933 248.696 106.2C248.523 106.493 248.35 106.727 248.176 106.9C248.016 107.073 247.763 107.26 247.416 107.46C247.19 107.593 246.916 107.74 246.596 107.9L245.596 108.32L244.656 108.72C243.736 109.12 243.05 109.54 242.596 109.98C242.156 110.407 241.843 110.967 241.656 111.66C242.083 111.087 242.643 110.653 243.336 110.36C244.03 110.053 244.73 109.9 245.436 109.9C246.77 109.9 247.87 110.34 248.736 111.22C249.616 112.087 250.056 113.2 250.056 114.56C250.056 115.907 249.59 117.027 248.656 117.92C247.736 118.8 246.57 119.24 245.156 119.24ZM242.556 116.94C243.25 117.593 244.116 117.92 245.156 117.92C246.196 117.92 247.05 117.607 247.716 116.98C248.396 116.34 248.736 115.533 248.736 114.56C248.736 113.573 248.416 112.767 247.776 112.14C247.15 111.5 246.31 111.18 245.256 111.18C244.31 111.18 243.45 111.48 242.676 112.08C241.903 112.653 241.516 113.44 241.516 114.44C241.516 115.453 241.863 116.287 242.556 116.94ZM260.444 117.74C259.417 118.74 258.177 119.24 256.724 119.24C255.244 119.24 253.997 118.74 252.984 117.74C251.971 116.727 251.464 115.48 251.464 114C251.464 112.52 251.971 111.28 252.984 110.28C253.997 109.267 255.244 108.76 256.724 108.76C258.191 108.76 259.431 109.267 260.444 110.28C261.471 111.28 261.984 112.52 261.984 114C261.984 115.467 261.471 116.713 260.444 117.74ZM253.924 116.82C254.684 117.58 255.617 117.96 256.724 117.96C257.831 117.96 258.764 117.58 259.524 116.82C260.284 116.033 260.664 115.093 260.664 114C260.664 112.893 260.284 111.96 259.524 111.2C258.764 110.427 257.831 110.04 256.724 110.04C255.617 110.04 254.684 110.427 253.924 111.2C253.164 111.96 252.784 112.893 252.784 114C252.784 115.093 253.164 116.033 253.924 116.82ZM262.602 109H271.002V110.28H267.462V119H266.142V110.28H262.602V109ZM280.82 110.96V109H282.14V119H280.82V117.04C279.9 118.507 278.554 119.24 276.78 119.24C275.354 119.24 274.134 118.733 273.12 117.72C272.12 116.707 271.62 115.467 271.62 114C271.62 112.533 272.12 111.293 273.12 110.28C274.134 109.267 275.354 108.76 276.78 108.76C278.554 108.76 279.9 109.493 280.82 110.96ZM274.08 116.82C274.84 117.58 275.774 117.96 276.88 117.96C277.987 117.96 278.92 117.58 279.68 116.82C280.44 116.033 280.82 115.093 280.82 114C280.82 112.893 280.44 111.96 279.68 111.2C278.92 110.427 277.987 110.04 276.88 110.04C275.774 110.04 274.84 110.427 274.08 111.2C273.32 111.96 272.94 112.893 272.94 114C272.94 115.093 273.32 116.033 274.08 116.82ZM291.255 116.7L297.215 109H298.335V119H297.015V111.3L291.055 119H289.935V109H291.255V116.7ZM304.927 109H313.327V110.28H309.787V119H308.467V110.28H304.927V109ZM315.529 118.1C315.529 118.407 315.422 118.667 315.209 118.88C314.996 119.093 314.736 119.2 314.429 119.2C314.122 119.2 313.862 119.093 313.649 118.88C313.436 118.667 313.329 118.407 313.329 118.1C313.329 117.793 313.436 117.533 313.649 117.32C313.862 117.107 314.122 117 314.429 117C314.736 117 314.996 117.107 315.209 117.32C315.422 117.533 315.529 117.793 315.529 118.1ZM326.538 109V117.72H327.938V121.68H326.618V119H318.458V121.68H317.138V117.72H318.358C319.038 116.813 319.378 115.553 319.378 113.94V109H326.538ZM319.958 117.72H325.218V110.28H320.698V113.94C320.698 115.487 320.452 116.747 319.958 117.72ZM331.935 118.1C331.935 118.407 331.828 118.667 331.615 118.88C331.402 119.093 331.142 119.2 330.835 119.2C330.528 119.2 330.268 119.093 330.055 118.88C329.842 118.667 329.735 118.407 329.735 118.1C329.735 117.793 329.842 117.533 330.055 117.32C330.268 117.107 330.528 117 330.835 117C331.142 117 331.402 117.107 331.615 117.32C331.828 117.533 331.935 117.793 331.935 118.1ZM77.66 153H79.4V167H78V155.12L73.1 163.32H72.9L68 155.12V167H66.6V153H68.34L73 160.8L77.66 153ZM90.7761 165.74C89.7494 166.74 88.5094 167.24 87.0561 167.24C85.5761 167.24 84.3294 166.74 83.3161 165.74C82.3028 164.727 81.7961 163.48 81.7961 162C81.7961 160.52 82.3028 159.28 83.3161 158.28C84.3294 157.267 85.5761 156.76 87.0561 156.76C88.5228 156.76 89.7628 157.267 90.7761 158.28C91.8028 159.28 92.3161 160.52 92.3161 162C92.3161 163.467 91.8028 164.713 90.7761 165.74ZM84.2561 164.82C85.0161 165.58 85.9494 165.96 87.0561 165.96C88.1628 165.96 89.0961 165.58 89.8561 164.82C90.6161 164.033 90.9961 163.093 90.9961 162C90.9961 160.893 90.6161 159.96 89.8561 159.2C89.0961 158.427 88.1628 158.04 87.0561 158.04C85.9494 158.04 85.0161 158.427 84.2561 159.2C83.4961 159.96 83.1161 160.893 83.1161 162C83.1161 163.093 83.4961 164.033 84.2561 164.82ZM100.924 161.8L105.404 167H103.804L99.7242 162.18V167H98.4042V162.18L94.3242 167H92.7242L97.2042 161.8L92.9242 157H94.5242L98.4042 161.44V157H99.7242V161.44L103.604 157H105.204L100.924 161.8ZM111.02 156.76C112.513 156.76 113.707 157.287 114.6 158.34C115.52 159.38 115.98 160.613 115.98 162.04C115.98 162.107 115.967 162.313 115.94 162.66H107.16C107.293 163.66 107.72 164.46 108.44 165.06C109.16 165.66 110.06 165.96 111.14 165.96C112.66 165.96 113.733 165.393 114.36 164.26L115.52 164.94C115.08 165.66 114.473 166.227 113.7 166.64C112.94 167.04 112.08 167.24 111.12 167.24C109.547 167.24 108.267 166.747 107.28 165.76C106.293 164.773 105.8 163.52 105.8 162C105.8 160.493 106.287 159.247 107.26 158.26C108.233 157.26 109.487 156.76 111.02 156.76ZM111.02 158.04C109.98 158.04 109.107 158.347 108.4 158.96C107.707 159.573 107.293 160.38 107.16 161.38H114.62C114.473 160.313 114.067 159.493 113.4 158.92C112.707 158.333 111.913 158.04 111.02 158.04ZM116.489 157H124.889V158.28H121.349V167H120.029V158.28H116.489V157ZM130.727 156.76C132.22 156.76 133.414 157.287 134.307 158.34C135.227 159.38 135.687 160.613 135.687 162.04C135.687 162.107 135.674 162.313 135.647 162.66H126.867C127 163.66 127.427 164.46 128.147 165.06C128.867 165.66 129.767 165.96 130.847 165.96C132.367 165.96 133.44 165.393 134.067 164.26L135.227 164.94C134.787 165.66 134.18 166.227 133.407 166.64C132.647 167.04 131.787 167.24 130.827 167.24C129.254 167.24 127.974 166.747 126.987 165.76C126 164.773 125.507 163.52 125.507 162C125.507 160.493 125.994 159.247 126.967 158.26C127.94 157.26 129.194 156.76 130.727 156.76ZM130.727 158.04C129.687 158.04 128.814 158.347 128.107 158.96C127.414 159.573 127 160.38 126.867 161.38H134.327C134.18 160.313 133.774 159.493 133.107 158.92C132.414 158.333 131.62 158.04 130.727 158.04ZM151.167 165.74C150.14 166.74 148.9 167.24 147.447 167.24C145.967 167.24 144.72 166.74 143.707 165.74C142.693 164.727 142.187 163.48 142.187 162C142.187 160.52 142.693 159.28 143.707 158.28C144.72 157.267 145.967 156.76 147.447 156.76C148.913 156.76 150.153 157.267 151.167 158.28C152.193 159.28 152.707 160.52 152.707 162C152.707 163.467 152.193 164.713 151.167 165.74ZM144.647 164.82C145.407 165.58 146.34 165.96 147.447 165.96C148.553 165.96 149.487 165.58 150.247 164.82C151.007 164.033 151.387 163.093 151.387 162C151.387 160.893 151.007 159.96 150.247 159.2C149.487 158.427 148.553 158.04 147.447 158.04C146.34 158.04 145.407 158.427 144.647 159.2C143.887 159.96 143.507 160.893 143.507 162C143.507 163.093 143.887 164.033 144.647 164.82ZM159.356 167.24C157.929 167.24 156.729 166.767 155.756 165.82C154.796 164.86 154.316 163.62 154.316 162.1C154.316 160.393 154.569 159.087 155.076 158.18C155.582 157.26 156.609 156.427 158.156 155.68C158.649 155.453 159.036 155.28 159.316 155.16C159.782 154.973 160.149 154.813 160.416 154.68C161.576 154.147 162.162 153.487 162.176 152.7L163.216 153.3C163.149 153.633 163.042 153.933 162.896 154.2C162.722 154.493 162.549 154.727 162.376 154.9C162.216 155.073 161.962 155.26 161.616 155.46C161.389 155.593 161.116 155.74 160.796 155.9L159.796 156.32L158.856 156.72C157.936 157.12 157.249 157.54 156.796 157.98C156.356 158.407 156.042 158.967 155.856 159.66C156.282 159.087 156.842 158.653 157.536 158.36C158.229 158.053 158.929 157.9 159.636 157.9C160.969 157.9 162.069 158.34 162.936 159.22C163.816 160.087 164.256 161.2 164.256 162.56C164.256 163.907 163.789 165.027 162.856 165.92C161.936 166.8 160.769 167.24 159.356 167.24ZM156.756 164.94C157.449 165.593 158.316 165.92 159.356 165.92C160.396 165.92 161.249 165.607 161.916 164.98C162.596 164.34 162.936 163.533 162.936 162.56C162.936 161.573 162.616 160.767 161.976 160.14C161.349 159.5 160.509 159.18 159.456 159.18C158.509 159.18 157.649 159.48 156.876 160.08C156.102 160.653 155.716 161.44 155.716 162.44C155.716 163.453 156.062 164.287 156.756 164.94ZM168.593 160.8H171.333C172.253 160.8 173.039 161.093 173.693 161.68C174.346 162.253 174.673 162.993 174.673 163.9C174.673 164.82 174.346 165.567 173.693 166.14C173.066 166.713 172.279 167 171.333 167H167.273V158.28H164.473V157H168.593V160.8ZM168.593 165.72H171.333C171.906 165.72 172.386 165.553 172.773 165.22C173.159 164.873 173.353 164.433 173.353 163.9C173.353 163.367 173.159 162.933 172.773 162.6C172.386 162.253 171.906 162.08 171.333 162.08H168.593V165.72ZM179.208 157H183.268V167H181.948V163.16H180.228L177.148 167H175.468L178.628 163.12C177.815 163 177.148 162.667 176.628 162.12C176.121 161.56 175.868 160.887 175.868 160.1C175.868 159.207 176.188 158.467 176.828 157.88C177.495 157.293 178.288 157 179.208 157ZM179.208 161.92H181.948V158.28H179.208C178.635 158.28 178.155 158.453 177.768 158.8C177.381 159.133 177.188 159.567 177.188 160.1C177.188 160.633 177.381 161.073 177.768 161.42C178.155 161.753 178.635 161.92 179.208 161.92ZM190.728 167.24C189.221 167.24 187.968 166.74 186.968 165.74C185.968 164.713 185.468 163.467 185.468 162C185.468 160.52 185.968 159.28 186.968 158.28C187.968 157.267 189.221 156.76 190.728 156.76C191.715 156.76 192.601 157 193.388 157.48C194.175 157.947 194.748 158.58 195.108 159.38L194.028 160C193.761 159.4 193.328 158.927 192.728 158.58C192.141 158.22 191.475 158.04 190.728 158.04C189.621 158.04 188.688 158.427 187.928 159.2C187.168 159.96 186.788 160.893 186.788 162C186.788 163.093 187.168 164.033 187.928 164.82C188.688 165.58 189.621 165.96 190.728 165.96C191.461 165.96 192.121 165.787 192.708 165.44C193.308 165.093 193.775 164.613 194.108 164L195.208 164.64C194.795 165.44 194.188 166.073 193.388 166.54C192.588 167.007 191.701 167.24 190.728 167.24ZM204.183 161.36V157H205.503V167H204.183V162.64H198.423V167H197.103V157H198.423V161.36H204.183ZM209.615 164.7L215.575 157H216.695V167H215.375V159.3L209.415 167H208.295V157H209.615V164.7ZM218.286 157H226.686V158.28H223.146V167H221.826V158.28H218.286V157ZM229.615 160.8H232.355C233.275 160.8 234.061 161.093 234.715 161.68C235.368 162.253 235.695 162.993 235.695 163.9C235.695 164.82 235.368 165.567 234.715 166.14C234.088 166.713 233.301 167 232.355 167H228.295V157H229.615V160.8ZM229.615 165.72H232.355C232.928 165.72 233.408 165.553 233.795 165.22C234.181 164.873 234.375 164.433 234.375 163.9C234.375 163.367 234.181 162.933 233.795 162.6C233.408 162.253 232.928 162.08 232.355 162.08H229.615V165.72ZM242.251 167.24C240.745 167.24 239.491 166.74 238.491 165.74C237.491 164.713 236.991 163.467 236.991 162C236.991 160.52 237.491 159.28 238.491 158.28C239.491 157.267 240.745 156.76 242.251 156.76C243.238 156.76 244.125 157 244.911 157.48C245.698 157.947 246.271 158.58 246.631 159.38L245.551 160C245.285 159.4 244.851 158.927 244.251 158.58C243.665 158.22 242.998 158.04 242.251 158.04C241.145 158.04 240.211 158.427 239.451 159.2C238.691 159.96 238.311 160.893 238.311 162C238.311 163.093 238.691 164.033 239.451 164.82C240.211 165.58 241.145 165.96 242.251 165.96C242.985 165.96 243.645 165.787 244.231 165.44C244.831 165.093 245.298 164.613 245.631 164L246.731 164.64C246.318 165.44 245.711 166.073 244.911 166.54C244.111 167.007 243.225 167.24 242.251 167.24ZM251.571 157H255.631V167H254.311V163.16H252.591L249.511 167H247.831L250.991 163.12C250.178 163 249.511 162.667 248.991 162.12C248.485 161.56 248.231 160.887 248.231 160.1C248.231 159.207 248.551 158.467 249.191 157.88C249.858 157.293 250.651 157 251.571 157ZM251.571 161.92H254.311V158.28H251.571C250.998 158.28 250.518 158.453 250.131 158.8C249.745 159.133 249.551 159.567 249.551 160.1C249.551 160.633 249.745 161.073 250.131 161.42C250.518 161.753 250.998 161.92 251.571 161.92ZM270.511 161.36V157H271.831V167H270.511V162.64H264.751V167H263.431V157H264.751V161.36H270.511ZM283.223 158.96V157H284.543V167H283.223V165.04C282.303 166.507 280.956 167.24 279.183 167.24C277.756 167.24 276.536 166.733 275.523 165.72C274.523 164.707 274.023 163.467 274.023 162C274.023 160.533 274.523 159.293 275.523 158.28C276.536 157.267 277.756 156.76 279.183 156.76C280.956 156.76 282.303 157.493 283.223 158.96ZM276.483 164.82C277.243 165.58 278.176 165.96 279.283 165.96C280.389 165.96 281.323 165.58 282.083 164.82C282.843 164.033 283.223 163.093 283.223 162C283.223 160.893 282.843 159.96 282.083 159.2C281.323 158.427 280.389 158.04 279.283 158.04C278.176 158.04 277.243 158.427 276.483 159.2C275.723 159.96 275.343 160.893 275.343 162C275.343 163.093 275.723 164.033 276.483 164.82ZM300.938 158.96V157H302.258V167H300.938V165.04C300.018 166.507 298.671 167.24 296.898 167.24C295.471 167.24 294.251 166.733 293.238 165.72C292.238 164.707 291.738 163.467 291.738 162C291.738 160.533 292.238 159.293 293.238 158.28C294.251 157.267 295.471 156.76 296.898 156.76C298.671 156.76 300.018 157.493 300.938 158.96ZM294.198 164.82C294.958 165.58 295.891 165.96 296.998 165.96C298.104 165.96 299.038 165.58 299.798 164.82C300.558 164.033 300.938 163.093 300.938 162C300.938 160.893 300.558 159.96 299.798 159.2C299.038 158.427 298.104 158.04 296.998 158.04C295.891 158.04 294.958 158.427 294.198 159.2C293.438 159.96 293.058 160.893 293.058 162C293.058 163.093 293.438 164.033 294.198 164.82ZM312.132 161.36V157H313.452V167H312.132V162.64H306.372V167H305.052V157H306.372V161.36H312.132ZM316.244 157H322.644V158.28H317.564V167H316.244V157ZM324.686 157H331.846V167H330.526V158.28H326.006V162.74C326.006 164.407 325.686 165.553 325.046 166.18C324.419 166.807 323.553 167.08 322.446 167V165.76C323.219 165.84 323.786 165.653 324.146 165.2C324.506 164.747 324.686 163.927 324.686 162.74V157ZM335.962 164.7L341.922 157H343.042V167H341.722V159.3L335.762 167H334.642V157H335.962V164.7ZM352.634 155.4H347.434V154.24H352.634V155.4ZM347.154 164.7L353.114 157H354.234V167H352.914V159.3L346.954 167H345.834V157H347.154V164.7ZM361.685 167.24C360.178 167.24 358.925 166.74 357.925 165.74C356.925 164.713 356.425 163.467 356.425 162C356.425 160.52 356.925 159.28 357.925 158.28C358.925 157.267 360.178 156.76 361.685 156.76C362.672 156.76 363.558 157 364.345 157.48C365.132 157.947 365.705 158.58 366.065 159.38L364.985 160C364.718 159.4 364.285 158.927 363.685 158.58C363.098 158.22 362.432 158.04 361.685 158.04C360.578 158.04 359.645 158.427 358.885 159.2C358.125 159.96 357.745 160.893 357.745 162C357.745 163.093 358.125 164.033 358.885 164.82C359.645 165.58 360.578 165.96 361.685 165.96C362.418 165.96 363.078 165.787 363.665 165.44C364.265 165.093 364.732 164.613 365.065 164L366.165 164.64C365.752 165.44 365.145 166.073 364.345 166.54C363.545 167.007 362.658 167.24 361.685 167.24ZM370.78 161.8L376.14 167H374.38L369.38 162.18V167H368.06V157H369.38V161.42L374.14 157H375.94L370.78 161.8ZM385.327 165.74C384.3 166.74 383.06 167.24 381.607 167.24C380.127 167.24 378.88 166.74 377.867 165.74C376.854 164.727 376.347 163.48 376.347 162C376.347 160.52 376.854 159.28 377.867 158.28C378.88 157.267 380.127 156.76 381.607 156.76C383.074 156.76 384.314 157.267 385.327 158.28C386.354 159.28 386.867 160.52 386.867 162C386.867 163.467 386.354 164.713 385.327 165.74ZM378.807 164.82C379.567 165.58 380.5 165.96 381.607 165.96C382.714 165.96 383.647 165.58 384.407 164.82C385.167 164.033 385.547 163.093 385.547 162C385.547 160.893 385.167 159.96 384.407 159.2C383.647 158.427 382.714 158.04 381.607 158.04C380.5 158.04 379.567 158.427 378.807 159.2C378.047 159.96 377.667 160.893 377.667 162C377.667 163.093 378.047 164.033 378.807 164.82ZM397.356 157H398.876V167H397.556V159.02L394.056 164.7H393.896L390.396 159.02V167H389.076V157H390.596L393.976 162.48L397.356 157ZM409.813 157H413.873V167H412.553V163.16H410.833L407.753 167H406.073L409.233 163.12C408.42 163 407.753 162.667 407.233 162.12C406.727 161.56 406.473 160.887 406.473 160.1C406.473 159.207 406.793 158.467 407.433 157.88C408.1 157.293 408.893 157 409.813 157ZM409.813 161.92H412.553V158.28H409.813C409.24 158.28 408.76 158.453 408.373 158.8C407.987 159.133 407.793 159.567 407.793 160.1C407.793 160.633 407.987 161.073 408.373 161.42C408.76 161.753 409.24 161.92 409.813 161.92ZM421.833 161.86C422.993 162.3 423.573 163.1 423.573 164.26C423.573 165.1 423.247 165.807 422.593 166.38C421.967 166.953 421.047 167.24 419.833 167.24C417.807 167.24 416.487 166.44 415.873 164.84L416.993 164.18C417.42 165.367 418.367 165.96 419.833 165.96C420.593 165.96 421.187 165.8 421.613 165.48C422.04 165.147 422.253 164.713 422.253 164.18C422.253 163.7 422.08 163.32 421.733 163.04C421.387 162.747 420.92 162.6 420.333 162.6H418.873V161.32H419.933C420.507 161.32 420.953 161.18 421.273 160.9C421.607 160.607 421.773 160.207 421.773 159.7C421.773 159.22 421.573 158.827 421.173 158.52C420.787 158.2 420.273 158.04 419.633 158.04C418.393 158.04 417.56 158.54 417.133 159.54L416.033 158.9C416.7 157.473 417.9 156.76 419.633 156.76C420.7 156.76 421.54 157.04 422.153 157.6C422.78 158.147 423.093 158.82 423.093 159.62C423.093 160.647 422.673 161.393 421.833 161.86ZM426.9 160.8H429.64C430.56 160.8 431.346 161.093 432 161.68C432.653 162.253 432.98 162.993 432.98 163.9C432.98 164.82 432.653 165.567 432 166.14C431.373 166.713 430.586 167 429.64 167H425.58V157H426.9V160.8ZM434.38 167V157H435.7V167H434.38ZM426.9 165.72H429.64C430.213 165.72 430.693 165.553 431.08 165.22C431.466 164.873 431.66 164.433 431.66 163.9C431.66 163.367 431.466 162.933 431.08 162.6C430.693 162.253 430.213 162.08 429.64 162.08H426.9V165.72ZM441.229 161.8L446.589 167H444.829L439.829 162.18V167H438.509V157H439.829V161.42L444.589 157H446.389L441.229 161.8ZM452.016 156.76C453.509 156.76 454.703 157.287 455.596 158.34C456.516 159.38 456.976 160.613 456.976 162.04C456.976 162.107 456.963 162.313 456.936 162.66H448.156C448.289 163.66 448.716 164.46 449.436 165.06C450.156 165.66 451.056 165.96 452.136 165.96C453.656 165.96 454.729 165.393 455.356 164.26L456.516 164.94C456.076 165.66 455.469 166.227 454.696 166.64C453.936 167.04 453.076 167.24 452.116 167.24C450.543 167.24 449.263 166.747 448.276 165.76C447.289 164.773 446.796 163.52 446.796 162C446.796 160.493 447.283 159.247 448.256 158.26C449.229 157.26 450.483 156.76 452.016 156.76ZM452.016 158.04C450.976 158.04 450.103 158.347 449.396 158.96C448.703 159.573 448.289 160.38 448.156 161.38H455.616C455.469 160.313 455.063 159.493 454.396 158.92C453.703 158.333 452.909 158.04 452.016 158.04ZM470.436 161.86C471.529 162.26 472.076 163.04 472.076 164.2C472.076 165.027 471.796 165.7 471.236 166.22C470.689 166.74 469.922 167 468.936 167H464.076V157H468.536C469.496 157 470.242 157.247 470.776 157.74C471.322 158.233 471.596 158.88 471.596 159.68C471.596 160.68 471.209 161.407 470.436 161.86ZM468.536 158.28H465.396V161.32H468.536C469.696 161.32 470.276 160.8 470.276 159.76C470.276 159.293 470.122 158.933 469.816 158.68C469.522 158.413 469.096 158.28 468.536 158.28ZM465.396 165.72H468.936C469.522 165.72 469.969 165.58 470.276 165.3C470.596 165.02 470.756 164.627 470.756 164.12C470.756 163.64 470.596 163.267 470.276 163C469.969 162.733 469.522 162.6 468.936 162.6H465.396V165.72ZM479.076 157H487.476V167H486.156V158.28H480.396V167H479.076V157ZM495.627 156.76C497.054 156.76 498.267 157.267 499.267 158.28C500.281 159.293 500.787 160.533 500.787 162C500.787 163.467 500.281 164.707 499.267 165.72C498.267 166.733 497.054 167.24 495.627 167.24C493.854 167.24 492.507 166.507 491.587 165.04V171H490.267V157H491.587V158.96C492.507 157.493 493.854 156.76 495.627 156.76ZM492.727 164.82C493.487 165.58 494.421 165.96 495.527 165.96C496.634 165.96 497.567 165.58 498.327 164.82C499.087 164.033 499.467 163.093 499.467 162C499.467 160.893 499.087 159.96 498.327 159.2C497.567 158.427 496.634 158.04 495.527 158.04C494.421 158.04 493.487 158.427 492.727 159.2C491.967 159.96 491.587 160.893 491.587 162C491.587 163.093 491.967 164.033 492.727 164.82ZM511.362 165.74C510.335 166.74 509.095 167.24 507.642 167.24C506.162 167.24 504.915 166.74 503.902 165.74C502.889 164.727 502.382 163.48 502.382 162C502.382 160.52 502.889 159.28 503.902 158.28C504.915 157.267 506.162 156.76 507.642 156.76C509.109 156.76 510.349 157.267 511.362 158.28C512.389 159.28 512.902 160.52 512.902 162C512.902 163.467 512.389 164.713 511.362 165.74ZM504.842 164.82C505.602 165.58 506.535 165.96 507.642 165.96C508.749 165.96 509.682 165.58 510.442 164.82C511.202 164.033 511.582 163.093 511.582 162C511.582 160.893 511.202 159.96 510.442 159.2C509.682 158.427 508.749 158.04 507.642 158.04C506.535 158.04 505.602 158.427 504.842 159.2C504.082 159.96 503.702 160.893 503.702 162C503.702 163.093 504.082 164.033 504.842 164.82ZM519.771 167.24C518.264 167.24 517.011 166.74 516.011 165.74C515.011 164.713 514.511 163.467 514.511 162C514.511 160.52 515.011 159.28 516.011 158.28C517.011 157.267 518.264 156.76 519.771 156.76C520.758 156.76 521.644 157 522.431 157.48C523.218 157.947 523.791 158.58 524.151 159.38L523.071 160C522.804 159.4 522.371 158.927 521.771 158.58C521.184 158.22 520.518 158.04 519.771 158.04C518.664 158.04 517.731 158.427 516.971 159.2C516.211 159.96 515.831 160.893 515.831 162C515.831 163.093 516.211 164.033 516.971 164.82C517.731 165.58 518.664 165.96 519.771 165.96C520.504 165.96 521.164 165.787 521.751 165.44C522.351 165.093 522.818 164.613 523.151 164L524.251 164.64C523.838 165.44 523.231 166.073 522.431 166.54C521.631 167.007 520.744 167.24 519.771 167.24ZM524.751 157H533.151V158.28H529.611V167H528.291V158.28H524.751V157ZM536.079 160.8H538.819C539.739 160.8 540.526 161.093 541.179 161.68C541.833 162.253 542.159 162.993 542.159 163.9C542.159 164.82 541.833 165.567 541.179 166.14C540.553 166.713 539.766 167 538.819 167H534.759V157H536.079V160.8ZM543.559 167V157H544.879V167H543.559ZM536.079 165.72H538.819C539.393 165.72 539.873 165.553 540.259 165.22C540.646 164.873 540.839 164.433 540.839 163.9C540.839 163.367 540.646 162.933 540.259 162.6C539.873 162.253 539.393 162.08 538.819 162.08H536.079V165.72ZM552.189 161.82L556.089 167H554.509L551.389 162.88L548.269 167H546.689L550.609 161.82L546.949 157H548.529L551.389 160.78L554.249 157H555.829L552.189 161.82ZM567.324 167.24C565.898 167.24 564.698 166.767 563.724 165.82C562.764 164.86 562.284 163.62 562.284 162.1C562.284 160.393 562.538 159.087 563.044 158.18C563.551 157.26 564.578 156.427 566.124 155.68C566.618 155.453 567.004 155.28 567.284 155.16C567.751 154.973 568.118 154.813 568.384 154.68C569.544 154.147 570.131 153.487 570.144 152.7L571.184 153.3C571.118 153.633 571.011 153.933 570.864 154.2C570.691 154.493 570.518 154.727 570.344 154.9C570.184 155.073 569.931 155.26 569.584 155.46C569.358 155.593 569.084 155.74 568.764 155.9L567.764 156.32L566.824 156.72C565.904 157.12 565.218 157.54 564.764 157.98C564.324 158.407 564.011 158.967 563.824 159.66C564.251 159.087 564.811 158.653 565.504 158.36C566.198 158.053 566.898 157.9 567.604 157.9C568.938 157.9 570.038 158.34 570.904 159.22C571.784 160.087 572.224 161.2 572.224 162.56C572.224 163.907 571.758 165.027 570.824 165.92C569.904 166.8 568.738 167.24 567.324 167.24ZM564.724 164.94C565.418 165.593 566.284 165.92 567.324 165.92C568.364 165.92 569.218 165.607 569.884 164.98C570.564 164.34 570.904 163.533 570.904 162.56C570.904 161.573 570.584 160.767 569.944 160.14C569.318 159.5 568.478 159.18 567.424 159.18C566.478 159.18 565.618 159.48 564.844 160.08C564.071 160.653 563.684 161.44 563.684 162.44C563.684 163.453 564.031 164.287 564.724 164.94ZM575.552 160.8H578.292C579.212 160.8 579.999 161.093 580.652 161.68C581.305 162.253 581.632 162.993 581.632 163.9C581.632 164.82 581.305 165.567 580.652 166.14C580.025 166.713 579.239 167 578.292 167H574.232V157H575.552V160.8ZM583.032 167V157H584.352V167H583.032ZM575.552 165.72H578.292C578.865 165.72 579.345 165.553 579.732 165.22C580.119 164.873 580.312 164.433 580.312 163.9C580.312 163.367 580.119 162.933 579.732 162.6C579.345 162.253 578.865 162.08 578.292 162.08H575.552V165.72ZM585.962 157H594.362V158.28H590.822V167H589.502V158.28H585.962V157ZM603.96 165.74C602.933 166.74 601.693 167.24 600.24 167.24C598.76 167.24 597.513 166.74 596.5 165.74C595.486 164.727 594.98 163.48 594.98 162C594.98 160.52 595.486 159.28 596.5 158.28C597.513 157.267 598.76 156.76 600.24 156.76C601.706 156.76 602.946 157.267 603.96 158.28C604.986 159.28 605.5 160.52 605.5 162C605.5 163.467 604.986 164.713 603.96 165.74ZM597.44 164.82C598.2 165.58 599.133 165.96 600.24 165.96C601.346 165.96 602.28 165.58 603.04 164.82C603.8 164.033 604.18 163.093 604.18 162C604.18 160.893 603.8 159.96 603.04 159.2C602.28 158.427 601.346 158.04 600.24 158.04C599.133 158.04 598.2 158.427 597.44 159.2C596.68 159.96 596.3 160.893 596.3 162C596.3 163.093 596.68 164.033 597.44 164.82ZM614.069 161.86C615.162 162.26 615.709 163.04 615.709 164.2C615.709 165.027 615.429 165.7 614.869 166.22C614.322 166.74 613.555 167 612.569 167H607.709V157H612.169C613.129 157 613.875 157.247 614.409 157.74C614.955 158.233 615.229 158.88 615.229 159.68C615.229 160.68 614.842 161.407 614.069 161.86ZM612.169 158.28H609.029V161.32H612.169C613.329 161.32 613.909 160.8 613.909 159.76C613.909 159.293 613.755 158.933 613.449 158.68C613.155 158.413 612.729 158.28 612.169 158.28ZM609.029 165.72H612.569C613.155 165.72 613.602 165.58 613.909 165.3C614.229 165.02 614.389 164.627 614.389 164.12C614.389 163.64 614.229 163.267 613.909 163C613.602 162.733 613.155 162.6 612.569 162.6H609.029V165.72ZM619.029 160.8H621.769C622.689 160.8 623.475 161.093 624.129 161.68C624.782 162.253 625.109 162.993 625.109 163.9C625.109 164.82 624.782 165.567 624.129 166.14C623.502 166.713 622.715 167 621.769 167H617.709V157H619.029V160.8ZM626.509 167V157H627.829V167H626.509ZM619.029 165.72H621.769C622.342 165.72 622.822 165.553 623.209 165.22C623.595 164.873 623.789 164.433 623.789 163.9C623.789 163.367 623.595 162.933 623.209 162.6C622.822 162.253 622.342 162.08 621.769 162.08H619.029V165.72ZM635.138 161.82L639.038 167H637.458L634.338 162.88L631.218 167H629.638L633.558 161.82L629.898 157H631.478L634.338 160.78L637.198 157H638.778L635.138 161.82ZM71.06 191.24C69.5533 191.24 68.3 190.74 67.3 189.74C66.3 188.713 65.8 187.467 65.8 186C65.8 184.52 66.3 183.28 67.3 182.28C68.3 181.267 69.5533 180.76 71.06 180.76C72.0467 180.76 72.9333 181 73.72 181.48C74.5067 181.947 75.08 182.58 75.44 183.38L74.36 184C74.0933 183.4 73.66 182.927 73.06 182.58C72.4733 182.22 71.8067 182.04 71.06 182.04C69.9533 182.04 69.02 182.427 68.26 183.2C67.5 183.96 67.12 184.893 67.12 186C67.12 187.093 67.5 188.033 68.26 188.82C69.02 189.58 69.9533 189.96 71.06 189.96C71.7933 189.96 72.4533 189.787 73.04 189.44C73.64 189.093 74.1067 188.613 74.44 188L75.54 188.64C75.1267 189.44 74.52 190.073 73.72 190.54C72.92 191.007 72.0333 191.24 71.06 191.24ZM78.7552 188.7L84.7152 181H85.8352V191H84.5152V183.3L78.5552 191H77.4352V181H78.7552V188.7ZM87.4266 181H95.8266V182.28H92.2866V191H90.9666V182.28H87.4266V181ZM101.395 189.38L104.635 181H106.035L101.755 191.92C101.355 192.933 100.795 193.713 100.075 194.26C99.3685 194.82 98.5818 195.067 97.7152 195V193.76C98.9152 193.907 99.8285 193.213 100.455 191.68L100.715 191.06L96.2352 181H97.6352L101.395 189.38ZM115.84 182.96V181H117.16V191H115.84V189.04C114.92 190.507 113.573 191.24 111.8 191.24C110.373 191.24 109.153 190.733 108.14 189.72C107.14 188.707 106.64 187.467 106.64 186C106.64 184.533 107.14 183.293 108.14 182.28C109.153 181.267 110.373 180.76 111.8 180.76C113.573 180.76 114.92 181.493 115.84 182.96ZM109.1 188.82C109.86 189.58 110.793 189.96 111.9 189.96C113.007 189.96 113.94 189.58 114.7 188.82C115.46 188.033 115.84 187.093 115.84 186C115.84 184.893 115.46 183.96 114.7 183.2C113.94 182.427 113.007 182.04 111.9 182.04C110.793 182.04 109.86 182.427 109.1 183.2C108.34 183.96 107.96 184.893 107.96 186C107.96 187.093 108.34 188.033 109.1 188.82ZM128.155 181V189.72H129.755V193.68H128.435V191H119.955V181H121.275V189.72H126.835V181H128.155ZM133.072 188.7L139.032 181H140.152V191H138.832V183.3L132.872 191H131.752V181H133.072V188.7ZM146.083 181H150.143V191H148.823V187.16H147.103L144.023 191H142.343L145.503 187.12C144.69 187 144.023 186.667 143.503 186.12C142.996 185.56 142.743 184.887 142.743 184.1C142.743 183.207 143.063 182.467 143.703 181.88C144.37 181.293 145.163 181 146.083 181ZM146.083 185.92H148.823V182.28H146.083C145.51 182.28 145.03 182.453 144.643 182.8C144.256 183.133 144.063 183.567 144.063 184.1C144.063 184.633 144.256 185.073 144.643 185.42C145.03 185.753 145.51 185.92 146.083 185.92ZM157.443 185.82L161.343 191H159.763L156.643 186.88L153.523 191H151.943L155.863 185.82L152.203 181H153.783L156.643 184.78L159.503 181H161.083L157.443 185.82ZM163.738 189.3H165.338L164.138 193.8H162.938L163.738 189.3ZM171.743 181H180.143V182.28H176.603V191H175.283V182.28H171.743V181ZM187.112 180.76C188.538 180.76 189.752 181.267 190.752 182.28C191.765 183.293 192.272 184.533 192.272 186C192.272 187.467 191.765 188.707 190.752 189.72C189.752 190.733 188.538 191.24 187.112 191.24C185.338 191.24 183.992 190.507 183.072 189.04V195H181.752V181H183.072V182.96C183.992 181.493 185.338 180.76 187.112 180.76ZM184.212 188.82C184.972 189.58 185.905 189.96 187.012 189.96C188.118 189.96 189.052 189.58 189.812 188.82C190.572 188.033 190.952 187.093 190.952 186C190.952 184.893 190.572 183.96 189.812 183.2C189.052 182.427 188.118 182.04 187.012 182.04C185.905 182.04 184.972 182.427 184.212 183.2C183.452 183.96 183.072 184.893 183.072 186C183.072 187.093 183.452 188.033 184.212 188.82ZM199.086 180.76C200.58 180.76 201.773 181.287 202.666 182.34C203.586 183.38 204.046 184.613 204.046 186.04C204.046 186.107 204.033 186.313 204.006 186.66H195.226C195.36 187.66 195.786 188.46 196.506 189.06C197.226 189.66 198.126 189.96 199.206 189.96C200.726 189.96 201.8 189.393 202.426 188.26L203.586 188.94C203.146 189.66 202.54 190.227 201.766 190.64C201.006 191.04 200.146 191.24 199.186 191.24C197.613 191.24 196.333 190.747 195.346 189.76C194.36 188.773 193.866 187.52 193.866 186C193.866 184.493 194.353 183.247 195.326 182.26C196.3 181.26 197.553 180.76 199.086 180.76ZM199.086 182.04C198.046 182.04 197.173 182.347 196.466 182.96C195.773 183.573 195.36 184.38 195.226 185.38H202.686C202.54 184.313 202.133 183.493 201.466 182.92C200.773 182.333 199.98 182.04 199.086 182.04ZM210.586 191.24C209.159 191.24 207.959 190.767 206.986 189.82C206.026 188.86 205.546 187.62 205.546 186.1C205.546 184.393 205.799 183.087 206.306 182.18C206.813 181.26 207.839 180.427 209.386 179.68C209.879 179.453 210.266 179.28 210.546 179.16C211.013 178.973 211.379 178.813 211.646 178.68C212.806 178.147 213.393 177.487 213.406 176.7L214.446 177.3C214.379 177.633 214.273 177.933 214.126 178.2C213.953 178.493 213.779 178.727 213.606 178.9C213.446 179.073 213.193 179.26 212.846 179.46C212.619 179.593 212.346 179.74 212.026 179.9L211.026 180.32L210.086 180.72C209.166 181.12 208.479 181.54 208.026 181.98C207.586 182.407 207.273 182.967 207.086 183.66C207.513 183.087 208.073 182.653 208.766 182.36C209.459 182.053 210.159 181.9 210.866 181.9C212.199 181.9 213.299 182.34 214.166 183.22C215.046 184.087 215.486 185.2 215.486 186.56C215.486 187.907 215.019 189.027 214.086 189.92C213.166 190.8 211.999 191.24 210.586 191.24ZM207.986 188.94C208.679 189.593 209.546 189.92 210.586 189.92C211.626 189.92 212.479 189.607 213.146 188.98C213.826 188.34 214.166 187.533 214.166 186.56C214.166 185.573 213.846 184.767 213.206 184.14C212.579 183.5 211.739 183.18 210.686 183.18C209.739 183.18 208.879 183.48 208.106 184.08C207.333 184.653 206.946 185.44 206.946 186.44C206.946 187.453 207.293 188.287 207.986 188.94ZM221.063 189.38L224.303 181H225.703L221.423 191.92C221.023 192.933 220.463 193.713 219.743 194.26C219.036 194.82 218.25 195.067 217.383 195V193.76C218.583 193.907 219.496 193.213 220.123 191.68L220.383 191.06L215.903 181H217.303L221.063 189.38ZM235.838 180.76C237.305 180.76 238.545 181.267 239.558 182.28C240.585 183.28 241.098 184.52 241.098 186C241.098 187.467 240.585 188.713 239.558 189.74C238.532 190.74 237.292 191.24 235.838 191.24C234.505 191.24 233.345 190.807 232.358 189.94C231.385 189.047 230.832 187.947 230.698 186.64H228.618V191H227.298V181H228.618V185.36H230.698C230.845 184.04 231.398 182.947 232.358 182.08C233.332 181.2 234.492 180.76 235.838 180.76ZM233.038 188.82C233.798 189.58 234.732 189.96 235.838 189.96C236.945 189.96 237.878 189.58 238.638 188.82C239.398 188.033 239.778 187.093 239.778 186C239.778 184.893 239.398 183.96 238.638 183.2C237.878 182.427 236.945 182.04 235.838 182.04C234.732 182.04 233.798 182.427 233.038 183.2C232.278 183.96 231.898 184.893 231.898 186C231.898 187.093 232.278 188.033 233.038 188.82ZM256.695 181V189.72H258.095V193.68H256.775V191H243.295V181H244.615V189.72H249.335V181H250.655V189.72H255.375V181H256.695ZM261.411 188.7L267.371 181H268.491V191H267.171V183.3L261.211 191H260.091V181H261.411V188.7ZM275.783 185.82L279.683 191H278.103L274.983 186.88L271.863 191H270.283L274.203 185.82L270.543 181H272.123L274.983 184.78L277.843 181H279.423L275.783 185.82ZM286.478 181H294.878V191H293.558V182.28H287.798V191H286.478V181ZM303.03 180.76C304.456 180.76 305.67 181.267 306.67 182.28C307.683 183.293 308.19 184.533 308.19 186C308.19 187.467 307.683 188.707 306.67 189.72C305.67 190.733 304.456 191.24 303.03 191.24C301.256 191.24 299.91 190.507 298.99 189.04V195H297.67V181H298.99V182.96C299.91 181.493 301.256 180.76 303.03 180.76ZM300.13 188.82C300.89 189.58 301.823 189.96 302.93 189.96C304.036 189.96 304.97 189.58 305.73 188.82C306.49 188.033 306.87 187.093 306.87 186C306.87 184.893 306.49 183.96 305.73 183.2C304.97 182.427 304.036 182.04 302.93 182.04C301.823 182.04 300.89 182.427 300.13 183.2C299.37 183.96 298.99 184.893 298.99 186C298.99 187.093 299.37 188.033 300.13 188.82ZM313.134 181H317.194V191H315.874V187.16H314.154L311.074 191H309.394L312.554 187.12C311.74 187 311.074 186.667 310.554 186.12C310.047 185.56 309.794 184.887 309.794 184.1C309.794 183.207 310.114 182.467 310.754 181.88C311.42 181.293 312.214 181 313.134 181ZM313.134 185.92H315.874V182.28H313.134C312.56 182.28 312.08 182.453 311.694 182.8C311.307 183.133 311.114 183.567 311.114 184.1C311.114 184.633 311.307 185.073 311.694 185.42C312.08 185.753 312.56 185.92 313.134 185.92ZM328.274 181H329.794V191H328.474V183.02L324.974 188.7H324.814L321.314 183.02V191H319.994V181H321.514L324.894 186.48L328.274 181ZM340.971 189.74C339.945 190.74 338.705 191.24 337.251 191.24C335.771 191.24 334.525 190.74 333.511 189.74C332.498 188.727 331.991 187.48 331.991 186C331.991 184.52 332.498 183.28 333.511 182.28C334.525 181.267 335.771 180.76 337.251 180.76C338.718 180.76 339.958 181.267 340.971 182.28C341.998 183.28 342.511 184.52 342.511 186C342.511 187.467 341.998 188.713 340.971 189.74ZM334.451 188.82C335.211 189.58 336.145 189.96 337.251 189.96C338.358 189.96 339.291 189.58 340.051 188.82C340.811 188.033 341.191 187.093 341.191 186C341.191 184.893 340.811 183.96 340.051 183.2C339.291 182.427 338.358 182.04 337.251 182.04C336.145 182.04 335.211 182.427 334.451 183.2C333.691 183.96 333.311 184.893 333.311 186C333.311 187.093 333.691 188.033 334.451 188.82ZM344.72 181H351.12V182.28H346.04V191H344.72V181ZM360.718 189.74C359.691 190.74 358.451 191.24 356.998 191.24C355.518 191.24 354.271 190.74 353.258 189.74C352.244 188.727 351.738 187.48 351.738 186C351.738 184.52 352.244 183.28 353.258 182.28C354.271 181.267 355.518 180.76 356.998 180.76C358.464 180.76 359.704 181.267 360.718 182.28C361.744 183.28 362.258 184.52 362.258 186C362.258 187.467 361.744 188.713 360.718 189.74ZM354.198 188.82C354.958 189.58 355.891 189.96 356.998 189.96C358.104 189.96 359.038 189.58 359.798 188.82C360.558 188.033 360.938 187.093 360.938 186C360.938 184.893 360.558 183.96 359.798 183.2C359.038 182.427 358.104 182.04 356.998 182.04C355.891 182.04 354.958 182.427 354.198 183.2C353.438 183.96 353.058 184.893 353.058 186C353.058 187.093 353.438 188.033 354.198 188.82ZM377.846 189.74C376.82 190.74 375.58 191.24 374.126 191.24C372.646 191.24 371.4 190.74 370.386 189.74C369.373 188.727 368.866 187.48 368.866 186C368.866 184.52 369.373 183.28 370.386 182.28C371.4 181.267 372.646 180.76 374.126 180.76C375.593 180.76 376.833 181.267 377.846 182.28C378.873 183.28 379.386 184.52 379.386 186C379.386 187.467 378.873 188.713 377.846 189.74ZM371.326 188.82C372.086 189.58 373.02 189.96 374.126 189.96C375.233 189.96 376.166 189.58 376.926 188.82C377.686 188.033 378.066 187.093 378.066 186C378.066 184.893 377.686 183.96 376.926 183.2C376.166 182.427 375.233 182.04 374.126 182.04C373.02 182.04 372.086 182.427 371.326 183.2C370.566 183.96 370.186 184.893 370.186 186C370.186 187.093 370.566 188.033 371.326 188.82ZM386.035 191.24C384.609 191.24 383.409 190.767 382.435 189.82C381.475 188.86 380.995 187.62 380.995 186.1C380.995 184.393 381.249 183.087 381.755 182.18C382.262 181.26 383.289 180.427 384.835 179.68C385.329 179.453 385.715 179.28 385.995 179.16C386.462 178.973 386.829 178.813 387.095 178.68C388.255 178.147 388.842 177.487 388.855 176.7L389.895 177.3C389.829 177.633 389.722 177.933 389.575 178.2C389.402 178.493 389.229 178.727 389.055 178.9C388.895 179.073 388.642 179.26 388.295 179.46C388.069 179.593 387.795 179.74 387.475 179.9L386.475 180.32L385.535 180.72C384.615 181.12 383.929 181.54 383.475 181.98C383.035 182.407 382.722 182.967 382.535 183.66C382.962 183.087 383.522 182.653 384.215 182.36C384.909 182.053 385.609 181.9 386.315 181.9C387.649 181.9 388.749 182.34 389.615 183.22C390.495 184.087 390.935 185.2 390.935 186.56C390.935 187.907 390.469 189.027 389.535 189.92C388.615 190.8 387.449 191.24 386.035 191.24ZM383.435 188.94C384.129 189.593 384.995 189.92 386.035 189.92C387.075 189.92 387.929 189.607 388.595 188.98C389.275 188.34 389.615 187.533 389.615 186.56C389.615 185.573 389.295 184.767 388.655 184.14C388.029 183.5 387.189 183.18 386.135 183.18C385.189 183.18 384.329 183.48 383.555 184.08C382.782 184.653 382.395 185.44 382.395 186.44C382.395 187.453 382.742 188.287 383.435 188.94ZM401.223 181H402.743V191H401.423V183.02L397.923 188.7H397.763L394.263 183.02V191H392.943V181H394.463L397.843 186.48L401.223 181ZM410.161 180.76C411.654 180.76 412.847 181.287 413.741 182.34C414.661 183.38 415.121 184.613 415.121 186.04C415.121 186.107 415.107 186.313 415.081 186.66H406.301C406.434 187.66 406.861 188.46 407.581 189.06C408.301 189.66 409.201 189.96 410.281 189.96C411.801 189.96 412.874 189.393 413.501 188.26L414.661 188.94C414.221 189.66 413.614 190.227 412.841 190.64C412.081 191.04 411.221 191.24 410.261 191.24C408.687 191.24 407.407 190.747 406.421 189.76C405.434 188.773 404.941 187.52 404.941 186C404.941 184.493 405.427 183.247 406.401 182.26C407.374 181.26 408.627 180.76 410.161 180.76ZM410.161 182.04C409.121 182.04 408.247 182.347 407.541 182.96C406.847 183.573 406.434 184.38 406.301 185.38H413.761C413.614 184.313 413.207 183.493 412.541 182.92C411.847 182.333 411.054 182.04 410.161 182.04ZM424.3 185.36V181H425.62V191H424.3V186.64H418.54V191H417.22V181H418.54V185.36H424.3ZM437.012 182.96V181H438.332V191H437.012V189.04C436.092 190.507 434.745 191.24 432.972 191.24C431.545 191.24 430.325 190.733 429.312 189.72C428.312 188.707 427.812 187.467 427.812 186C427.812 184.533 428.312 183.293 429.312 182.28C430.325 181.267 431.545 180.76 432.972 180.76C434.745 180.76 436.092 181.493 437.012 182.96ZM430.272 188.82C431.032 189.58 431.965 189.96 433.072 189.96C434.178 189.96 435.112 189.58 435.872 188.82C436.632 188.033 437.012 187.093 437.012 186C437.012 184.893 436.632 183.96 435.872 183.2C435.112 182.427 434.178 182.04 433.072 182.04C431.965 182.04 431.032 182.427 430.272 183.2C429.512 183.96 429.132 184.893 429.132 186C429.132 187.093 429.512 188.033 430.272 188.82ZM447.447 188.7L453.407 181H454.527V191H453.207V183.3L447.247 191H446.127V181H447.447V188.7ZM464.398 185.36V181H465.718V191H464.398V186.64H458.638V191H457.318V181H458.638V185.36H464.398ZM474.469 191.22V195H473.149V191.22C471.563 191.073 470.296 190.52 469.349 189.56C468.389 188.573 467.909 187.387 467.909 186C467.909 184.613 468.389 183.427 469.349 182.44C470.296 181.48 471.563 180.927 473.149 180.78V177H474.469V180.78C476.056 180.927 477.323 181.48 478.269 182.44C479.229 183.427 479.709 184.613 479.709 186C479.709 187.387 479.229 188.573 478.269 189.56C477.323 190.52 476.056 191.073 474.469 191.22ZM473.149 189.92V182.08C471.963 182.2 471.009 182.62 470.289 183.34C469.583 184.06 469.229 184.947 469.229 186C469.229 187.053 469.583 187.94 470.289 188.66C471.009 189.38 471.963 189.8 473.149 189.92ZM474.469 182.08V189.92C475.656 189.8 476.603 189.38 477.309 188.66C478.029 187.94 478.389 187.053 478.389 186C478.389 184.947 478.029 184.06 477.309 183.34C476.603 182.62 475.656 182.2 474.469 182.08ZM490.288 189.74C489.261 190.74 488.021 191.24 486.568 191.24C485.088 191.24 483.841 190.74 482.828 189.74C481.814 188.727 481.308 187.48 481.308 186C481.308 184.52 481.814 183.28 482.828 182.28C483.841 181.267 485.088 180.76 486.568 180.76C488.034 180.76 489.274 181.267 490.288 182.28C491.314 183.28 491.828 184.52 491.828 186C491.828 187.467 491.314 188.713 490.288 189.74ZM483.768 188.82C484.528 189.58 485.461 189.96 486.568 189.96C487.674 189.96 488.608 189.58 489.368 188.82C490.128 188.033 490.508 187.093 490.508 186C490.508 184.893 490.128 183.96 489.368 183.2C488.608 182.427 487.674 182.04 486.568 182.04C485.461 182.04 484.528 182.427 483.768 183.2C483.008 183.96 482.628 184.893 482.628 186C482.628 187.093 483.008 188.033 483.768 188.82ZM499.397 180.76C500.823 180.76 502.037 181.267 503.037 182.28C504.05 183.293 504.557 184.533 504.557 186C504.557 187.467 504.05 188.707 503.037 189.72C502.037 190.733 500.823 191.24 499.397 191.24C497.623 191.24 496.277 190.507 495.357 189.04V195H494.037V181H495.357V182.96C496.277 181.493 497.623 180.76 499.397 180.76ZM496.497 188.82C497.257 189.58 498.19 189.96 499.297 189.96C500.403 189.96 501.337 189.58 502.097 188.82C502.857 188.033 503.237 187.093 503.237 186C503.237 184.893 502.857 183.96 502.097 183.2C501.337 182.427 500.403 182.04 499.297 182.04C498.19 182.04 497.257 182.427 496.497 183.2C495.737 183.96 495.357 184.893 495.357 186C495.357 187.093 495.737 188.033 496.497 188.82ZM515.032 181H516.552V191H515.232V183.02L511.732 188.7H511.572L508.072 183.02V191H506.752V181H508.272L511.652 186.48L515.032 181ZM527.949 182.96V181H529.269V191H527.949V189.04C527.029 190.507 525.683 191.24 523.909 191.24C522.483 191.24 521.263 190.733 520.249 189.72C519.249 188.707 518.749 187.467 518.749 186C518.749 184.533 519.249 183.293 520.249 182.28C521.263 181.267 522.483 180.76 523.909 180.76C525.683 180.76 527.029 181.493 527.949 182.96ZM521.209 188.82C521.969 189.58 522.903 189.96 524.009 189.96C525.116 189.96 526.049 189.58 526.809 188.82C527.569 188.033 527.949 187.093 527.949 186C527.949 184.893 527.569 183.96 526.809 183.2C526.049 182.427 525.116 182.04 524.009 182.04C522.903 182.04 521.969 182.427 521.209 183.2C520.449 183.96 520.069 184.893 520.069 186C520.069 187.093 520.449 188.033 521.209 188.82ZM540.264 181V189.72H541.864V193.68H540.544V191H532.064V181H533.384V189.72H538.944V181H540.264ZM545.181 188.7L551.141 181H552.261V191H550.941V183.3L544.981 191H543.861V181H545.181V188.7ZM559.672 180.76C561.166 180.76 562.359 181.287 563.252 182.34C564.172 183.38 564.632 184.613 564.632 186.04C564.632 186.107 564.619 186.313 564.592 186.66H555.812C555.946 187.66 556.372 188.46 557.092 189.06C557.812 189.66 558.712 189.96 559.792 189.96C561.312 189.96 562.386 189.393 563.012 188.26L564.172 188.94C563.732 189.66 563.126 190.227 562.352 190.64C561.592 191.04 560.732 191.24 559.772 191.24C558.199 191.24 556.919 190.747 555.932 189.76C554.946 188.773 554.452 187.52 554.452 186C554.452 184.493 554.939 183.247 555.912 182.26C556.886 181.26 558.139 180.76 559.672 180.76ZM559.672 182.04C558.632 182.04 557.759 182.347 557.052 182.96C556.359 183.573 555.946 184.38 555.812 185.38H563.272C563.126 184.313 562.719 183.493 562.052 182.92C561.359 182.333 560.566 182.04 559.672 182.04ZM573.532 179.4H568.332V178.24H573.532V179.4ZM568.052 188.7L574.012 181H575.132V191H573.812V183.3L567.852 191H566.732V181H568.052V188.7ZM590.003 185.36V181H591.323V191H590.003V186.64H584.243V191H582.923V181H584.243V185.36H590.003ZM602.715 182.96V181H604.035V191H602.715V189.04C601.795 190.507 600.448 191.24 598.675 191.24C597.248 191.24 596.028 190.733 595.015 189.72C594.015 188.707 593.515 187.467 593.515 186C593.515 184.533 594.015 183.293 595.015 182.28C596.028 181.267 597.248 180.76 598.675 180.76C600.448 180.76 601.795 181.493 602.715 182.96ZM595.975 188.82C596.735 189.58 597.668 189.96 598.775 189.96C599.882 189.96 600.815 189.58 601.575 188.82C602.335 188.033 602.715 187.093 602.715 186C602.715 184.893 602.335 183.96 601.575 183.2C600.815 182.427 599.882 182.04 598.775 182.04C597.668 182.04 596.735 182.427 595.975 183.2C595.215 183.96 594.835 184.893 594.835 186C594.835 187.093 595.215 188.033 595.975 188.82ZM71.56 209.86C72.72 210.3 73.3 211.1 73.3 212.26C73.3 213.1 72.9733 213.807 72.32 214.38C71.6933 214.953 70.7733 215.24 69.56 215.24C67.5333 215.24 66.2133 214.44 65.6 212.84L66.72 212.18C67.1467 213.367 68.0933 213.96 69.56 213.96C70.32 213.96 70.9133 213.8 71.34 213.48C71.7667 213.147 71.98 212.713 71.98 212.18C71.98 211.7 71.8067 211.32 71.46 211.04C71.1133 210.747 70.6467 210.6 70.06 210.6H68.6V209.32H69.66C70.2333 209.32 70.68 209.18 71 208.9C71.3333 208.607 71.5 208.207 71.5 207.7C71.5 207.22 71.3 206.827 70.9 206.52C70.5133 206.2 70 206.04 69.36 206.04C68.12 206.04 67.2867 206.54 66.86 207.54L65.76 206.9C66.4267 205.473 67.6267 204.76 69.36 204.76C70.4267 204.76 71.2667 205.04 71.88 205.6C72.5067 206.147 72.82 206.82 72.82 207.62C72.82 208.647 72.4 209.393 71.56 209.86ZM82.3863 209.36V205H83.7063V215H82.3863V210.64H76.6263V215H75.3063V205H76.6263V209.36H82.3863ZM95.0977 206.96V205H96.4177V215H95.0977V213.04C94.1777 214.507 92.831 215.24 91.0577 215.24C89.631 215.24 88.411 214.733 87.3977 213.72C86.3977 212.707 85.8977 211.467 85.8977 210C85.8977 208.533 86.3977 207.293 87.3977 206.28C88.411 205.267 89.631 204.76 91.0577 204.76C92.831 204.76 94.1777 205.493 95.0977 206.96ZM88.3577 212.82C89.1177 213.58 90.051 213.96 91.1577 213.96C92.2643 213.96 93.1977 213.58 93.9577 212.82C94.7177 212.033 95.0977 211.093 95.0977 210C95.0977 208.893 94.7177 207.96 93.9577 207.2C93.1977 206.427 92.2643 206.04 91.1577 206.04C90.051 206.04 89.1177 206.427 88.3577 207.2C87.5977 207.96 87.2177 208.893 87.2177 210C87.2177 211.093 87.5977 212.033 88.3577 212.82ZM101.933 209.8L107.293 215H105.533L100.533 210.18V215H99.2125V205H100.533V209.42L105.293 205H107.093L101.933 209.8ZM116.479 213.74C115.453 214.74 114.213 215.24 112.759 215.24C111.279 215.24 110.033 214.74 109.019 213.74C108.006 212.727 107.499 211.48 107.499 210C107.499 208.52 108.006 207.28 109.019 206.28C110.033 205.267 111.279 204.76 112.759 204.76C114.226 204.76 115.466 205.267 116.479 206.28C117.506 207.28 118.019 208.52 118.019 210C118.019 211.467 117.506 212.713 116.479 213.74ZM109.959 212.82C110.719 213.58 111.653 213.96 112.759 213.96C113.866 213.96 114.799 213.58 115.559 212.82C116.319 212.033 116.699 211.093 116.699 210C116.699 208.893 116.319 207.96 115.559 207.2C114.799 206.427 113.866 206.04 112.759 206.04C111.653 206.04 110.719 206.427 109.959 207.2C109.199 207.96 108.819 208.893 108.819 210C108.819 211.093 109.199 212.033 109.959 212.82ZM128.508 205H130.028V215H128.708V207.02L125.208 212.7H125.048L121.548 207.02V215H120.228V205H121.748L125.128 210.48L128.508 205ZM134.146 208.8H136.886C137.806 208.8 138.592 209.093 139.246 209.68C139.899 210.253 140.226 210.993 140.226 211.9C140.226 212.82 139.899 213.567 139.246 214.14C138.619 214.713 137.832 215 136.886 215H132.826V205H134.146V208.8ZM141.626 215V205H142.946V215H141.626ZM134.146 213.72H136.886C137.459 213.72 137.939 213.553 138.326 213.22C138.712 212.873 138.906 212.433 138.906 211.9C138.906 211.367 138.712 210.933 138.326 210.6C137.939 210.253 137.459 210.08 136.886 210.08H134.146V213.72ZM150.375 204.76C151.869 204.76 153.062 205.287 153.955 206.34C154.875 207.38 155.335 208.613 155.335 210.04C155.335 210.107 155.322 210.313 155.295 210.66H146.515C146.649 211.66 147.075 212.46 147.795 213.06C148.515 213.66 149.415 213.96 150.495 213.96C152.015 213.96 153.089 213.393 153.715 212.26L154.875 212.94C154.435 213.66 153.829 214.227 153.055 214.64C152.295 215.04 151.435 215.24 150.475 215.24C148.902 215.24 147.622 214.747 146.635 213.76C145.649 212.773 145.155 211.52 145.155 210C145.155 208.493 145.642 207.247 146.615 206.26C147.589 205.26 148.842 204.76 150.375 204.76ZM150.375 206.04C149.335 206.04 148.462 206.347 147.755 206.96C147.062 207.573 146.649 208.38 146.515 209.38H153.975C153.829 208.313 153.422 207.493 152.755 206.92C152.062 206.333 151.269 206.04 150.375 206.04ZM161.235 205H169.635V206.28H166.095V215H164.775V206.28H161.235V205ZM175.473 204.76C176.966 204.76 178.16 205.287 179.053 206.34C179.973 207.38 180.433 208.613 180.433 210.04C180.433 210.107 180.42 210.313 180.393 210.66H171.613C171.746 211.66 172.173 212.46 172.893 213.06C173.613 213.66 174.513 213.96 175.593 213.96C177.113 213.96 178.186 213.393 178.813 212.26L179.973 212.94C179.533 213.66 178.926 214.227 178.153 214.64C177.393 215.04 176.533 215.24 175.573 215.24C174 215.24 172.72 214.747 171.733 213.76C170.746 212.773 170.253 211.52 170.253 210C170.253 208.493 170.74 207.247 171.713 206.26C172.686 205.26 173.94 204.76 175.473 204.76ZM175.473 206.04C174.433 206.04 173.56 206.347 172.853 206.96C172.16 207.573 171.746 208.38 171.613 209.38H179.073C178.926 208.313 178.52 207.493 177.853 206.92C177.16 206.333 176.366 206.04 175.473 206.04ZM190.813 205H192.333V215H191.013V207.02L187.513 212.7H187.353L183.853 207.02V215H182.533V205H184.053L187.433 210.48L190.813 205ZM196.45 208.8H199.19C200.11 208.8 200.897 209.093 201.55 209.68C202.204 210.253 202.53 210.993 202.53 211.9C202.53 212.82 202.204 213.567 201.55 214.14C200.924 214.713 200.137 215 199.19 215H195.13V205H196.45V208.8ZM203.93 215V205H205.25V215H203.93ZM196.45 213.72H199.19C199.764 213.72 200.244 213.553 200.63 213.22C201.017 212.873 201.21 212.433 201.21 211.9C201.21 211.367 201.017 210.933 200.63 210.6C200.244 210.253 199.764 210.08 199.19 210.08H196.45V213.72ZM210.06 214.1C210.06 214.407 209.953 214.667 209.74 214.88C209.527 215.093 209.267 215.2 208.96 215.2C208.653 215.2 208.393 215.093 208.18 214.88C207.967 214.667 207.86 214.407 207.86 214.1C207.86 213.793 207.967 213.533 208.18 213.32C208.393 213.107 208.653 213 208.96 213C209.267 213 209.527 213.107 209.74 213.32C209.953 213.533 210.06 213.793 210.06 214.1Z" fill="#333333"/>
</svg>
