<svg width="52" height="52" viewBox="0 0 52 52" fill="none" xmlns="http://www.w3.org/2000/svg">
<circle cx="26" cy="26" r="26" fill="white"/>
<path d="M26.0002 13C21.2215 13 17.3335 16.888 17.3335 21.6667C17.3335 23.1013 17.6922 24.5236 18.374 25.7852L25.5262 38.7207C25.6214 38.8932 25.8029 39 26.0002 39C26.1975 39 26.3789 38.8932 26.4741 38.7207L33.629 25.781C34.3082 24.5236 34.6669 23.1012 34.6669 21.6666C34.6669 16.888 30.7789 13 26.0002 13ZM26.0002 26C23.6108 26 21.6669 24.056 21.6669 21.6667C21.6669 19.2773 23.6108 17.3334 26.0002 17.3334C28.3895 17.3334 30.3335 19.2773 30.3335 21.6667C30.3335 24.056 28.3895 26 26.0002 26Z" fill="#00022F"/>
</svg>
