<svg width="60" height="60" viewBox="0 0 60 60" fill="none" xmlns="http://www.w3.org/2000/svg">
<path d="M58.75 42.5001H55V15C55 12.2425 52.7576 10 49.9999 10H9.99996C7.24242 10 4.99992 12.2424 4.99992 15V42.5001H1.24992C0.559102 42.5001 0 43.0591 0 43.75V45C0 47.7576 2.24238 50.0001 5.00004 50.0001H55.0001C57.7576 50.0001 60 47.7576 60 45V43.75C60 43.0591 59.4409 42.5001 58.75 42.5001ZM50 42.5001H37.5C37.3059 42.5001 37.1142 42.5452 36.9409 42.6319L34.7046 43.7501H25.2954L23.0591 42.6319C22.8858 42.5452 22.6941 42.5001 22.5 42.5001H9.99996V15H49.9999V42.5001H50Z" fill="white"/>
</svg>
