<svg width="16" height="24" viewBox="0 0 16 24" fill="none" xmlns="http://www.w3.org/2000/svg">
<path d="M7.99999 0C3.58887 0 -1.52588e-05 3.58889 -1.52588e-05 8.00002C-1.52588e-05 9.32423 0.331063 10.6372 0.960453 11.8018L7.56251 23.7422C7.6504 23.9014 7.81788 24 7.99999 24C8.1821 24 8.34959 23.9014 8.43748 23.7422L15.042 11.7978C15.6689 10.6372 16 9.32419 16 7.99997C16 3.58889 12.4111 0 7.99999 0ZM7.99999 12C5.79443 12 4.00001 10.2056 4.00001 8.00002C4.00001 5.79445 5.79443 4.00003 7.99999 4.00003C10.2056 4.00003 12 5.79445 12 8.00002C12 10.2056 10.2056 12 7.99999 12Z" fill="white"/>
</svg>
