<svg width="24" height="24" viewBox="0 0 24 24" fill="none" xmlns="http://www.w3.org/2000/svg">
<path d="M21.8905 2.85938H2.10927C1.78457 2.85938 1.48058 2.9392 1.20557 3.07078L11.953 13.8182L14.3619 11.5032C14.3619 11.5032 14.3621 11.503 14.3621 11.5029C14.3622 11.5028 14.3623 11.5027 14.3623 11.5027L22.7945 3.07097C22.5195 2.9393 22.2153 2.85938 21.8905 2.85938Z" fill="white"/>
<path d="M23.7887 4.06543L15.8535 12.0001L23.7884 19.935C23.92 19.66 23.9998 19.356 23.9998 19.0313V4.9688C23.9998 4.64429 23.9201 4.34035 23.7887 4.06543Z" fill="white"/>
<path d="M0.211406 4.06543C0.0798281 4.34045 0 4.64443 0 4.96913V19.0316C0 19.3561 0.0797344 19.6602 0.211219 19.9351L8.14636 12.0004L0.211406 4.06543Z" fill="white"/>
<path d="M14.8597 12.9942L12.4505 15.3095C12.3132 15.4469 12.1333 15.5155 11.9534 15.5155C11.7735 15.5155 11.5936 15.4469 11.4563 15.3095L9.14085 12.9941L1.20557 20.9289C1.48063 21.0606 1.7848 21.1405 2.1096 21.1405H21.8909C22.2156 21.1405 22.5195 21.0607 22.7946 20.9291L14.8597 12.9942Z" fill="white"/>
</svg>
