<svg width="32" height="37" viewBox="0 0 32 37" fill="none" xmlns="http://www.w3.org/2000/svg">
<path d="M2 6H30C31.1045 6 32 6.89551 32 8C32 9.10449 31.1045 10 30 10H2C0.895508 10 0 9.10449 0 8C0 6.89551 0.895508 6 2 6Z" fill="#051D65"/>
<path d="M2 16H30C31.1045 16 32 16.8955 32 18C32 19.1045 31.1045 20 30 20H2C0.895508 20 0 19.1045 0 18C0 16.8955 0.895508 16 2 16Z" fill="#051D65"/>
<path d="M2 26H30C31.1045 26 32 26.8955 32 28C32 29.1045 31.1045 30 30 30H2C0.895508 30 0 29.1045 0 28C0 26.8955 0.895508 26 2 26Z" fill="#051D65"/>
</svg>
