<svg width="257" height="257" viewBox="0 0 257 257" fill="none" xmlns="http://www.w3.org/2000/svg">
<g clip-path="url(#clip0_418_1033)">
<path d="M243.821 15.0762H163.693C156.418 15.0762 150.514 20.9804 150.514 28.2552V108.383C150.514 115.659 156.418 121.562 163.693 121.562H202.044C201.543 142.544 196.667 159.333 187.442 171.959C180.167 181.922 169.149 190.172 154.415 196.683C147.641 199.661 144.715 207.674 147.878 214.369L157.367 234.401C160.425 240.832 167.989 243.653 174.526 240.832C191.975 233.294 206.71 223.752 218.729 212.155C233.384 198.001 243.426 182.028 248.856 164.21C254.286 146.392 257 122.09 257 91.2508V28.2552C257 20.9806 251.096 15.0762 243.821 15.0762Z" fill="white" fill-opacity="0.1"/>
<path d="M27.9493 240.78C45.1874 233.268 59.8424 223.726 71.9408 212.155C86.7276 198.001 96.8227 182.08 102.252 164.394C107.682 146.708 110.397 122.327 110.397 91.2508V28.2552C110.397 20.9804 104.493 15.0762 97.2178 15.0762H17.0895C9.81469 15.0762 3.9105 20.9804 3.9105 28.2552V108.383C3.9105 115.659 9.81469 121.562 17.0895 121.562H55.4404C54.9396 142.544 50.0634 159.333 40.8381 171.959C33.5632 181.922 22.5456 190.172 7.81148 196.683C1.03748 199.661 -1.88826 207.674 1.2747 214.369L10.7372 234.349C13.795 240.78 21.4125 243.627 27.9493 240.78Z" fill="white" fill-opacity="0.1"/>
</g>
<defs>
<clipPath id="clip0_418_1033">
<rect width="257" height="257" fill="white"/>
</clipPath>
</defs>
</svg>
