<svg width="207" height="38" viewBox="0 0 207 38" fill="none" xmlns="http://www.w3.org/2000/svg">
<g clip-path="url(#clip0_418_1106)">
<path d="M19 0C8.50819 0 0 8.50819 0 19C0 29.4918 8.50819 38 19 38C29.4918 38 38 29.4918 38 19C38 8.50819 29.4918 0 19 0ZM19.4027 30.0624C19.4024 30.0624 19.403 30.0624 19.4027 30.0624H19.3981C17.4948 30.0615 15.6245 29.5843 13.9636 28.6786L7.93532 30.2595L9.54871 24.3684C8.55342 22.6445 8.02983 20.6888 8.0307 18.6852C8.03331 12.4171 13.1347 7.31779 19.4027 7.31779C22.4445 7.31895 25.2999 8.50298 27.4467 10.6516C29.5939 12.8004 30.7756 15.6567 30.7744 18.6941C30.7718 24.9624 25.6698 30.0624 19.4027 30.0624Z" fill="white"/>
<path d="M19.4066 9.23828C14.193 9.23828 9.953 13.4766 9.95068 18.6864C9.9501 20.4717 10.4499 22.2103 11.3959 23.7147L11.6206 24.0722L10.6656 27.559L14.2429 26.6208L14.5882 26.8255C16.0392 27.6866 17.7028 28.142 19.3988 28.1426H19.4026C24.6121 28.1426 28.8521 23.904 28.8544 18.6939C28.8553 16.169 27.8731 13.7952 26.0886 12.0093C24.3042 10.2234 21.9309 9.23915 19.4066 9.23828ZM24.9661 22.7487C24.7292 23.412 23.5942 24.0177 23.0483 24.0994C22.5586 24.1725 21.9393 24.2029 21.2586 23.9869C20.8458 23.8559 20.3167 23.6811 19.6386 23.3886C16.7884 22.1581 14.9268 19.2891 14.7848 19.0995C14.6427 18.9099 13.6245 17.5592 13.6245 16.1609C13.6245 14.7629 14.3586 14.0755 14.6189 13.7914C14.8796 13.507 15.1875 13.436 15.3768 13.436C15.5661 13.436 15.7557 13.4377 15.9212 13.4458C16.0958 13.4545 16.33 13.3795 16.5605 13.9335C16.7974 14.5023 17.3656 15.9003 17.4366 16.0423C17.5077 16.1847 17.5549 16.3505 17.4604 16.5401C17.3656 16.7297 17.0508 17.1388 16.7501 17.5116C16.624 17.6679 16.4596 17.8071 16.6254 18.0915C16.791 18.3756 17.3615 19.3059 18.2061 20.0591C19.2915 21.0269 20.2071 21.3267 20.4912 21.469C20.775 21.6111 20.9409 21.5873 21.1067 21.398C21.2722 21.2084 21.817 20.5685 22.0063 20.2841C22.1956 19.9997 22.3852 20.0473 22.6456 20.1421C22.9062 20.2366 24.303 20.924 24.5872 21.066C24.8713 21.2084 25.0606 21.2794 25.1316 21.398C25.2029 21.5166 25.2029 22.0851 24.9661 22.7487Z" fill="white"/>
</g>
<g clip-path="url(#clip1_418_1106)">
<path d="M135.119 19C135.119 21.0085 133.491 22.6367 131.482 22.6367C129.474 22.6367 127.846 21.0085 127.846 19C127.846 16.9915 129.474 15.3633 131.482 15.3633C133.491 15.3633 135.119 16.9915 135.119 19Z" fill="white"/>
<path d="M139.988 12.5645C139.813 12.0908 139.534 11.662 139.171 11.31C138.82 10.9476 138.391 10.6687 137.917 10.4939C137.533 10.3446 136.955 10.1669 135.891 10.1185C134.741 10.066 134.396 10.0547 131.483 10.0547C128.569 10.0547 128.224 10.0657 127.074 10.1182C126.01 10.1669 125.432 10.3446 125.048 10.4939C124.574 10.6687 124.145 10.9476 123.794 11.31C123.431 11.662 123.152 12.0905 122.977 12.5645C122.828 12.9489 122.65 13.5267 122.602 14.5904C122.549 15.7408 122.538 16.0858 122.538 18.9992C122.538 21.9123 122.549 22.2573 122.602 23.408C122.65 24.4717 122.828 25.0492 122.977 25.4336C123.152 25.9076 123.431 26.3361 123.793 26.6881C124.145 27.0505 124.574 27.3294 125.048 27.5042C125.432 27.6538 126.01 27.8315 127.074 27.8799C128.224 27.9324 128.569 27.9434 131.482 27.9434C134.396 27.9434 134.741 27.9324 135.891 27.8799C136.955 27.8315 137.533 27.6538 137.917 27.5042C138.869 27.1372 139.621 26.3851 139.988 25.4336C140.137 25.0492 140.315 24.4717 140.363 23.408C140.416 22.2573 140.427 21.9123 140.427 18.9992C140.427 16.0858 140.416 15.7408 140.363 14.5904C140.315 13.5267 140.137 12.9489 139.988 12.5645ZM131.483 24.6013C128.388 24.6013 125.88 22.0932 125.88 18.9989C125.88 15.9046 128.388 13.3966 131.483 13.3966C134.577 13.3966 137.085 15.9046 137.085 18.9989C137.085 22.0932 134.577 24.6013 131.483 24.6013ZM137.306 14.4843C136.583 14.4843 135.997 13.8981 135.997 13.1751C135.997 12.452 136.583 11.8658 137.306 11.8658C138.03 11.8658 138.616 12.452 138.616 13.1751C138.615 13.8981 138.03 14.4843 137.306 14.4843Z" fill="white"/>
<path d="M131.48 0C120.988 0 112.48 8.50819 112.48 19C112.48 29.4918 120.988 38 131.48 38C141.972 38 150.48 29.4918 150.48 19C150.48 8.50819 141.972 0 131.48 0ZM142.324 23.4981C142.272 24.6595 142.087 25.4524 141.817 26.1465C141.25 27.612 140.092 28.7705 138.626 29.3373C137.933 29.6069 137.139 29.7913 135.978 29.8443C134.815 29.8974 134.443 29.9102 131.48 29.9102C128.517 29.9102 128.146 29.8974 126.982 29.8443C125.821 29.7913 125.028 29.6069 124.334 29.3373C123.606 29.0633 122.946 28.6339 122.401 28.0788C121.846 27.534 121.417 26.8744 121.143 26.1465C120.873 25.4527 120.689 24.6595 120.636 23.4984C120.582 22.3346 120.57 21.963 120.57 19C120.57 16.037 120.582 15.6654 120.636 14.5019C120.688 13.3405 120.873 12.5476 121.142 11.8535C121.416 11.1256 121.846 10.466 122.401 9.92125C122.946 9.36606 123.606 8.93669 124.334 8.66272C125.028 8.3931 125.821 8.20871 126.982 8.15565C128.145 8.1026 128.517 8.08984 131.48 8.08984C134.443 8.08984 134.815 8.1026 135.978 8.15594C137.139 8.20871 137.932 8.3931 138.626 8.66243C139.354 8.9364 140.014 9.36606 140.559 9.92125C141.114 10.4663 141.544 11.1256 141.817 11.8535C142.087 12.5476 142.272 13.3405 142.325 14.5019C142.378 15.6654 142.39 16.037 142.39 19C142.39 21.963 142.378 22.3346 142.324 23.4981Z" fill="white"/>
</g>
<g clip-path="url(#clip2_418_1106)">
<path d="M206.72 19C206.72 8.50547 198.215 0 187.72 0C177.226 0 168.72 8.50547 168.72 19C168.72 29.4945 177.226 38 187.72 38C187.832 38 187.943 38 188.054 37.9926V23.2082H183.972V18.4508H188.054V14.9477C188.054 10.8879 190.533 8.67617 194.155 8.67617C195.892 8.67617 197.383 8.80234 197.814 8.86172V13.107H195.32C193.353 13.107 192.967 14.0422 192.967 15.4152V18.4434H197.68L197.064 23.2008H192.967V37.2652C200.909 34.9867 206.72 27.6762 206.72 19Z" fill="white"/>
</g>
<g clip-path="url(#clip3_418_1106)">
<path d="M75.2402 38C85.7362 38 94.2402 29.4959 94.2402 19C94.2402 8.50408 85.7362 0 75.2402 0C64.7443 0 56.2402 8.50408 56.2402 19C56.2402 29.4959 64.7443 38 75.2402 38ZM64.9343 18.5883L83.2535 11.5251C84.1037 11.2179 84.8463 11.7325 84.5708 13.0182L84.5724 13.0166L81.4532 27.7115C81.2221 28.7533 80.603 29.0067 79.7369 28.5158L74.9869 25.0151L72.6958 27.2223C72.4425 27.4756 72.2287 27.6893 71.7379 27.6893L72.0752 22.8554L80.8785 14.9023C81.2617 14.5651 80.793 14.3751 80.2879 14.7108L69.4088 21.5602L64.719 20.0972C63.7009 19.7743 63.6787 19.0792 64.9343 18.5883Z" fill="white"/>
</g>
<defs>
<clipPath id="clip0_418_1106">
<rect width="38" height="38" fill="white"/>
</clipPath>
<clipPath id="clip1_418_1106">
<rect width="38" height="38" fill="white" transform="translate(112.48)"/>
</clipPath>
<clipPath id="clip2_418_1106">
<rect width="38" height="38" fill="white" transform="translate(168.72)"/>
</clipPath>
<clipPath id="clip3_418_1106">
<rect width="38" height="38" fill="white" transform="translate(56.2402)"/>
</clipPath>
</defs>
</svg>
