<svg width="192" height="44" viewBox="0 0 192 44" fill="none" xmlns="http://www.w3.org/2000/svg">
<rect width="192" height="44" rx="10" fill="#FFD075"/>
<path d="M21.8 12.2H33.992V29H31.76V14.312H24.032V29H21.8V12.2ZM44.0049 16.688C45.6849 16.688 47.1169 17.304 48.3009 18.536C49.4849 19.768 50.0769 21.256 50.0769 23C50.0769 24.76 49.4849 26.256 48.3009 27.488C47.1329 28.704 45.7009 29.312 44.0049 29.312C42.0209 29.312 40.5089 28.52 39.4689 26.936V33.8H37.3809V17H39.4689V19.064C40.5089 17.48 42.0209 16.688 44.0049 16.688ZM43.7409 27.296C44.9409 27.296 45.9489 26.888 46.7649 26.072C47.5809 25.224 47.9889 24.2 47.9889 23C47.9889 21.784 47.5809 20.768 46.7649 19.952C45.9489 19.12 44.9409 18.704 43.7409 18.704C42.5249 18.704 41.5089 19.12 40.6929 19.952C39.8769 20.768 39.4689 21.784 39.4689 23C39.4689 24.2 39.8769 25.224 40.6929 26.072C41.5089 26.888 42.5249 27.296 43.7409 27.296ZM62.6964 27.488C61.4804 28.704 59.9844 29.312 58.2084 29.312C56.4324 29.312 54.9364 28.704 53.7204 27.488C52.5044 26.272 51.8964 24.776 51.8964 23C51.8964 21.224 52.5044 19.728 53.7204 18.512C54.9364 17.296 56.4324 16.688 58.2084 16.688C59.9844 16.688 61.4804 17.296 62.6964 18.512C63.9284 19.744 64.5444 21.24 64.5444 23C64.5444 24.76 63.9284 26.256 62.6964 27.488ZM58.2084 27.272C59.4084 27.272 60.4164 26.864 61.2324 26.048C62.0484 25.232 62.4564 24.216 62.4564 23C62.4564 21.784 62.0484 20.768 61.2324 19.952C60.4164 19.136 59.4084 18.728 58.2084 18.728C57.0244 18.728 56.0244 19.136 55.2084 19.952C54.3924 20.768 53.9844 21.784 53.9844 23C53.9844 24.216 54.3924 25.232 55.2084 26.048C56.0244 26.864 57.0244 27.272 58.2084 27.272ZM76.8571 17V27.008H78.5131V32.216H76.4491V29H67.4491V32.216H65.3851V27.008H66.8491C67.6171 25.952 68.0011 24.472 68.0011 22.568V17H76.8571ZM69.2251 27.008H74.7931V18.944H70.0651V22.568C70.0651 24.328 69.7851 25.808 69.2251 27.008ZM88.7557 22.832C89.9877 23.344 90.6037 24.272 90.6037 25.616C90.6037 26.64 90.2677 27.464 89.5957 28.088C88.9237 28.696 87.9797 29 86.7637 29H80.7637V17H86.2837C87.4677 17 88.3877 17.296 89.0437 17.888C89.7157 18.48 90.0517 19.272 90.0517 20.264C90.0517 21.416 89.6197 22.272 88.7557 22.832ZM86.1877 18.872H82.8037V22.016H86.1877C87.4037 22.016 88.0117 21.48 88.0117 20.408C88.0117 19.384 87.4037 18.872 86.1877 18.872ZM82.8037 27.104H86.6437C87.2517 27.104 87.7157 26.96 88.0357 26.672C88.3717 26.384 88.5397 25.976 88.5397 25.448C88.5397 24.952 88.3717 24.568 88.0357 24.296C87.7157 24.008 87.2517 23.864 86.6437 23.864H82.8037V27.104ZM94.9214 25.424L101.569 17H103.249V29H101.185V20.576L94.5374 29H92.8574V17H94.9214V25.424ZM114.732 21.992V17H116.82V29H114.732V23.984H108.516V29H106.428V17H108.516V21.992H114.732ZM124.918 26.408L128.374 17H130.606L125.71 29.744C125.198 31.104 124.478 32.136 123.55 32.84C122.622 33.56 121.566 33.88 120.382 33.8V31.856C121.838 31.968 122.918 31.168 123.622 29.456L123.814 29.024L118.606 17H120.814L124.918 26.408ZM131.076 17H141.348V19.016H137.268V29H135.18V19.016H131.076V17ZM145.266 21.32H148.242C149.442 21.32 150.434 21.68 151.218 22.4C152.018 23.104 152.418 24.024 152.418 25.16C152.418 26.296 152.018 27.224 151.218 27.944C150.418 28.648 149.426 29 148.242 29H143.178V17H145.266V21.32ZM153.978 29V17H156.066V29H153.978ZM145.266 27.056H148.242C148.85 27.056 149.354 26.88 149.754 26.528C150.154 26.176 150.354 25.72 150.354 25.16C150.354 24.6 150.146 24.144 149.73 23.792C149.33 23.424 148.834 23.24 148.242 23.24H145.266V27.056ZM167.704 15.2H161.224V13.376H167.704V15.2ZM161.32 25.424L167.968 17H169.648V29H167.584V20.576L160.936 29H159.256V17H161.32V25.424Z" fill="#051D65"/>
</svg>
