<svg width="52" height="52" viewBox="0 0 52 52" fill="none" xmlns="http://www.w3.org/2000/svg">
<circle cx="26" cy="26" r="26" fill="white"/>
<g clip-path="url(#clip0_418_1127)">
<path d="M36.9138 30.066C35.3219 30.066 33.759 29.8171 32.2778 29.3276C31.5521 29.0801 30.6599 29.3071 30.2169 29.7621L27.2935 31.969C23.9031 30.1592 21.8147 28.0715 20.0297 24.7066L22.1716 21.8593C22.7281 21.3035 22.9277 20.4917 22.6886 19.73C22.197 18.2411 21.9473 16.6789 21.9473 15.0864C21.9474 13.9359 21.0115 13 19.8611 13H15.0863C13.9359 13 13 13.9359 13 15.0863C13 28.2725 23.7276 39 36.9138 39C38.0641 39 39.0001 38.0641 39.0001 36.9137V32.1523C39 31.002 38.0641 30.066 36.9138 30.066Z" fill="#00022F"/>
</g>
<defs>
<clipPath id="clip0_418_1127">
<rect width="26" height="26" fill="white" transform="translate(13 13)"/>
</clipPath>
</defs>
</svg>
