<svg width="32" height="32" viewBox="0 0 32 32" fill="none" xmlns="http://www.w3.org/2000/svg">
<g clip-path="url(#clip0_418_1059)">
<path d="M14.7514 7.10915L0.511215 21.3496C0.181592 21.6789 0 22.1186 0 22.5874C0 23.0562 0.181592 23.4959 0.511215 23.8252L1.55966 24.874C2.24284 25.5564 3.35321 25.5564 4.03535 24.874L15.9934 12.9159L27.9646 24.8872C28.2943 25.2166 28.7337 25.3984 29.2022 25.3984C29.6713 25.3984 30.1107 25.2166 30.4406 24.8872L31.4888 23.8385C31.8184 23.5089 32 23.0695 32 22.6007C32 22.1319 31.8184 21.6922 31.4888 21.3628L17.2356 7.10915C16.905 6.77901 16.4635 6.59768 15.9941 6.59872C15.523 6.59768 15.0818 6.77901 14.7514 7.10915Z" fill="#051D65"/>
</g>
<defs>
<clipPath id="clip0_418_1059">
<rect width="32" height="32" fill="white" transform="matrix(0 -1 1 0 0 32)"/>
</clipPath>
</defs>
</svg>
