<svg width="387" height="693" viewBox="0 0 387 693" fill="none" xmlns="http://www.w3.org/2000/svg">
<path opacity="0.1" d="M284.284 456.2H152.861C152.861 430.169 160.797 404.456 176.669 379.06C192.542 353.665 211.271 332.396 232.857 315.253C286.188 272.081 312.854 232.717 312.854 197.163C312.854 174.942 305.235 157.8 289.998 145.737C274.76 133.674 253.491 127.642 226.191 127.642C172.86 127.642 135.084 155.895 112.862 212.401L0.486221 147.642C19.533 101.294 49.6905 65.1053 90.9586 39.0747C132.227 13.044 178.891 0.0286974 230.953 0.0286974C288.093 0.0286974 337.932 16.8534 380.47 50.5028C423.008 83.5173 444.277 129.23 444.277 187.64C444.277 213.67 438.563 238.431 427.135 261.922C416.342 284.779 403.009 304.46 387.137 320.968C371.899 336.84 356.344 352.077 340.472 366.68C325.234 380.648 311.902 395.25 300.474 410.488C289.68 425.725 284.284 440.962 284.284 456.2ZM299.521 611.431C299.521 633.653 291.585 652.7 275.713 668.572C259.84 684.444 240.794 692.38 218.572 692.38C196.351 692.38 177.304 684.444 161.432 668.572C145.559 652.7 137.623 633.653 137.623 611.431C137.623 589.21 145.559 570.163 161.432 554.291C177.304 538.419 196.351 530.483 218.572 530.483C240.794 530.483 259.84 538.419 275.713 554.291C291.585 570.163 299.521 589.21 299.521 611.431Z" fill="#DAE7EC"/>
</svg>
