<svg width="52" height="52" viewBox="0 0 52 52" fill="none" xmlns="http://www.w3.org/2000/svg">
<circle cx="26" cy="26" r="26" fill="#051D65"/>
<rect x="10" y="11" width="31" height="30" rx="8" fill="white"/>
<g clip-path="url(#clip0_418_1179)">
<path d="M26 5C14.4038 5 5 14.4038 5 26C5 37.5962 14.4038 47 26 47C37.5962 47 47 37.5962 47 26C47 14.4038 37.5962 5 26 5ZM26.4451 38.2268C26.4448 38.2268 26.4454 38.2268 26.4451 38.2268H26.44C24.3363 38.2259 22.2692 37.6984 20.4334 36.6974L13.7706 38.4447L15.5538 31.9335C14.4538 30.0282 13.8751 27.8665 13.876 25.652C13.8789 18.7242 19.5173 13.0881 26.4451 13.0881C29.8071 13.0894 32.963 14.398 35.3359 16.7728C37.709 19.1478 39.0151 22.3047 39.0138 25.6619C39.0109 32.5901 33.3719 38.2268 26.4451 38.2268Z" fill="#051D65"/>
<path d="M26.4493 15.2109C20.687 15.2109 16.0006 19.8954 15.998 25.6536C15.9974 27.6268 16.5498 29.5485 17.5954 31.2112L17.8438 31.6063L16.7882 35.4602L20.7421 34.4232L21.1237 34.6495C22.7275 35.6012 24.5662 36.1046 26.4407 36.1052H26.4449C32.2028 36.1052 36.8891 31.4204 36.8917 25.6619C36.8926 22.8712 35.807 20.2475 33.8347 18.2737C31.8624 16.2998 29.2394 15.2119 26.4493 15.2109ZM32.594 30.1435C32.3322 30.8767 31.0777 31.5461 30.4743 31.6364C29.9331 31.7172 29.2487 31.7508 28.4963 31.5121C28.04 31.3673 27.4552 31.174 26.7057 30.8507C23.5555 29.4908 21.498 26.3198 21.341 26.1102C21.184 25.9006 20.0586 24.4077 20.0586 22.8623C20.0586 21.3171 20.8699 20.5574 21.1577 20.2434C21.4458 19.929 21.7861 19.8505 21.9953 19.8505C22.2045 19.8505 22.4141 19.8524 22.5971 19.8614C22.79 19.871 23.0489 19.788 23.3036 20.4004C23.5654 21.0291 24.1935 22.5742 24.272 22.7312C24.3505 22.8886 24.4027 23.0718 24.2983 23.2814C24.1935 23.491 23.8455 23.9431 23.5132 24.3552C23.3738 24.5279 23.1921 24.6817 23.3754 24.996C23.5584 25.3101 24.189 26.3384 25.1224 27.1708C26.3221 28.2405 27.3341 28.5718 27.6481 28.7291C27.9618 28.8861 28.1451 28.8599 28.3284 28.6506C28.5113 28.441 29.1134 27.7338 29.3227 27.4195C29.5319 27.1052 29.7415 27.1577 30.0292 27.2625C30.3173 27.3669 31.8612 28.1267 32.1752 28.2837C32.4892 28.441 32.6985 28.5195 32.777 28.6506C32.8558 28.7817 32.8558 29.41 32.594 30.1435Z" fill="#051D65"/>
</g>
<defs>
<clipPath id="clip0_418_1179">
<rect width="42" height="42" fill="white" transform="translate(5 5)"/>
</clipPath>
</defs>
</svg>
